<svg width="108" height="39" viewBox="0 0 108 39" fill="none" xmlns="http://www.w3.org/2000/svg">
<rect width="108" height="39" rx="10" fill="url(#paint0_linear_4_15)"/>
<path d="M36.412 21.116C36.412 21.942 35.852 22.404 34.9 22.404H32.926V19.772H34.858C35.81 19.772 36.412 20.276 36.412 21.116ZM36.174 17.042C36.174 17.84 35.642 18.26 34.718 18.26H32.926V15.81H34.718C35.642 15.81 36.174 16.258 36.174 17.042ZM38.4 21.354C38.4 20.206 37.616 19.184 36.51 18.988C37.462 18.68 38.176 17.938 38.176 16.748C38.176 15.292 37.042 14.228 34.998 14.228H30.966V24H35.18C37.21 24 38.4 22.908 38.4 21.354ZM47.2841 16.244H45.3101V20.514C45.3101 21.76 44.6381 22.432 43.5741 22.432C42.5381 22.432 41.8521 21.76 41.8521 20.514V16.244H39.8921V20.794C39.8921 22.922 41.1941 24.098 43.0001 24.098C43.9661 24.098 44.8201 23.678 45.3101 23.02V24H47.2841V16.244ZM49.526 21.592C49.526 23.37 50.52 24 52.004 24H53.236V22.348H52.326C51.71 22.348 51.5 22.124 51.5 21.606V17.854H53.236V16.244H51.5V14.326H49.526V16.244H48.602V17.854H49.526V21.592ZM54.9537 21.592C54.9537 23.37 55.9477 24 57.4317 24H58.6637V22.348H57.7537C57.1377 22.348 56.9277 22.124 56.9277 21.606V17.854H58.6637V16.244H56.9277V14.326H54.9537V16.244H54.0297V17.854H54.9537V21.592ZM67.5634 20.122C67.5634 17.672 65.8134 16.118 63.5734 16.118C61.3334 16.118 59.5834 17.672 59.5834 20.122C59.5834 22.558 61.2774 24.126 63.5174 24.126C65.7714 24.126 67.5634 22.558 67.5634 20.122ZM61.5714 20.122C61.5714 18.568 62.5094 17.826 63.5454 17.826C64.5814 17.826 65.5474 18.568 65.5474 20.122C65.5474 21.662 64.5534 22.418 63.5174 22.418C62.4674 22.418 61.5714 21.662 61.5714 20.122ZM74.4332 24H76.3932V19.45C76.3932 17.308 75.1052 16.132 73.2992 16.132C72.3052 16.132 71.4652 16.552 70.9612 17.21V16.244H69.0012V24H70.9612V19.716C70.9612 18.47 71.6472 17.798 72.7112 17.798C73.7472 17.798 74.4332 18.47 74.4332 19.716V24Z" fill="white"/>
<defs>
<linearGradient id="paint0_linear_4_15" x1="35.3455" y1="6.80997e-07" x2="107.77" y2="39.4222" gradientUnits="userSpaceOnUse">
<stop stop-color="#EB1484"/>
<stop offset="0.9999" stop-color="#C91CC3"/>
<stop offset="1" stop-color="#C81CC5"/>
<stop offset="1" stop-color="#C81CC5"/>
</linearGradient>
</defs>
</svg>
