<svg width="160" height="194" viewBox="0 0 160 194" fill="none" xmlns="http://www.w3.org/2000/svg">
<g clip-path="url(#clip0_50_1847)">
<path d="M11.14 17.96C11.14 13.04 3.98 14.6 3.98 11.8C3.98 10.66 4.8 10.12 5.9 10.16C7.1 10.18 7.84 10.9 7.9 11.82H10.98C10.8 9.3 8.84 7.84 5.98 7.84C3.1 7.84 1.06 9.36 1.06 11.88C1.04 16.94 8.24 15.12 8.24 18.14C8.24 19.14 7.46 19.84 6.14 19.84C4.84 19.84 4.1 19.1 4.02 17.98H1.02C1.06 20.62 3.3 22.14 6.2 22.14C9.38 22.14 11.14 20.16 11.14 17.96ZM24.0275 10.92H21.2075V17.02C21.2075 18.8 20.2475 19.76 18.7275 19.76C17.2475 19.76 16.2675 18.8 16.2675 17.02V10.92H13.4675V17.42C13.4675 20.46 15.3275 22.14 17.9075 22.14C19.2875 22.14 20.5075 21.54 21.2075 20.6V22H24.0275V10.92ZM29.5902 12.52V10.92H26.7902V27.28H29.5902V20.42C30.2702 21.32 31.5102 22.18 33.2502 22.18C36.0902 22.18 38.3102 19.88 38.3102 16.42C38.3102 12.96 36.0902 10.74 33.2502 10.74C31.5302 10.74 30.2502 11.58 29.5902 12.52ZM35.4502 16.42C35.4502 18.52 34.0302 19.72 32.5102 19.72C31.0102 19.72 29.5902 18.56 29.5902 16.46C29.5902 14.36 31.0102 13.2 32.5102 13.2C34.0302 13.2 35.4502 14.32 35.4502 16.42ZM43.1448 12.52V10.92H40.3448V27.28H43.1448V20.42C43.8248 21.32 45.0648 22.18 46.8048 22.18C49.6448 22.18 51.8648 19.88 51.8648 16.42C51.8648 12.96 49.6448 10.74 46.8048 10.74C45.0848 10.74 43.8048 11.58 43.1448 12.52ZM49.0048 16.42C49.0048 18.52 47.5848 19.72 46.0648 19.72C44.5648 19.72 43.1448 18.56 43.1448 16.46C43.1448 14.36 44.5648 13.2 46.0648 13.2C47.5848 13.2 49.0048 14.32 49.0048 16.42ZM64.5995 16.46C64.5995 12.96 62.0995 10.74 58.8995 10.74C55.6995 10.74 53.1995 12.96 53.1995 16.46C53.1995 19.94 55.6195 22.18 58.8195 22.18C62.0395 22.18 64.5995 19.94 64.5995 16.46ZM56.0395 16.46C56.0395 14.24 57.3795 13.18 58.8595 13.18C60.3395 13.18 61.7195 14.24 61.7195 16.46C61.7195 18.66 60.2995 19.74 58.8195 19.74C57.3195 19.74 56.0395 18.66 56.0395 16.46ZM69.4534 16.48C69.4534 14.34 70.4534 13.7 72.1134 13.7H72.8534V10.76C71.3134 10.76 70.1534 11.5 69.4534 12.64V10.92H66.6534V22H69.4534V16.48ZM75.1794 18.56C75.1794 21.1 76.5994 22 78.7194 22H80.4794V19.64H79.1794C78.2994 19.64 77.9994 19.32 77.9994 18.58V13.22H80.4794V10.92H77.9994V8.18H75.1794V10.92H73.8594V13.22H75.1794V18.56Z" fill="white"/>
<g clip-path="url(#clip1_50_1847)">
<path d="M9.824 61.848V73H8.368V67.944H2.688V73H1.232V61.848H2.688V66.744H8.368V61.848H9.824ZM20.3101 68.28C20.3101 68.5573 20.2941 68.8507 20.2621 69.16H13.2541C13.3075 70.024 13.6008 70.7013 14.1341 71.192C14.6781 71.672 15.3341 71.912 16.1021 71.912C16.7315 71.912 17.2541 71.768 17.6701 71.48C18.0968 71.1813 18.3955 70.7867 18.5661 70.296H20.1341C19.8995 71.1387 19.4301 71.8267 18.7261 72.36C18.0221 72.8827 17.1475 73.144 16.1021 73.144C15.2701 73.144 14.5235 72.9573 13.8621 72.584C13.2115 72.2107 12.6995 71.6827 12.3261 71C11.9528 70.3067 11.7661 69.5067 11.7661 68.6C11.7661 67.6933 11.9475 66.8987 12.3101 66.216C12.6728 65.5333 13.1795 65.0107 13.8301 64.648C14.4915 64.2747 15.2488 64.088 16.1021 64.088C16.9341 64.088 17.6701 64.2693 18.3101 64.632C18.9501 64.9947 19.4408 65.496 19.7821 66.136C20.1341 66.7653 20.3101 67.48 20.3101 68.28ZM18.8061 67.976C18.8061 67.4213 18.6835 66.9467 18.4381 66.552C18.1928 66.1467 17.8568 65.8427 17.4301 65.64C17.0141 65.4267 16.5501 65.32 16.0381 65.32C15.3021 65.32 14.6728 65.5547 14.1501 66.024C13.6381 66.4933 13.3448 67.144 13.2701 67.976H18.8061ZM23.688 61.16V73H22.232V61.16H23.688ZM27.6255 65.848C27.9135 65.3467 28.3402 64.9307 28.9055 64.6C29.4815 64.2587 30.1482 64.088 30.9055 64.088C31.6842 64.088 32.3882 64.2747 33.0175 64.648C33.6575 65.0213 34.1588 65.5493 34.5215 66.232C34.8842 66.904 35.0655 67.688 35.0655 68.584C35.0655 69.4693 34.8842 70.2587 34.5215 70.952C34.1588 71.6453 33.6575 72.184 33.0175 72.568C32.3882 72.952 31.6842 73.144 30.9055 73.144C30.1588 73.144 29.4975 72.9787 28.9215 72.648C28.3562 72.3067 27.9242 71.8853 27.6255 71.384V77.16H26.1695V64.232H27.6255V65.848ZM33.5775 68.584C33.5775 67.9227 33.4442 67.3467 33.1775 66.856C32.9108 66.3653 32.5482 65.992 32.0895 65.736C31.6415 65.48 31.1455 65.352 30.6015 65.352C30.0682 65.352 29.5722 65.4853 29.1135 65.752C28.6655 66.008 28.3028 66.3867 28.0255 66.888C27.7588 67.3787 27.6255 67.9493 27.6255 68.6C27.6255 69.2613 27.7588 69.8427 28.0255 70.344C28.3028 70.8347 28.6655 71.2133 29.1135 71.48C29.5722 71.736 30.0682 71.864 30.6015 71.864C31.1455 71.864 31.6415 71.736 32.0895 71.48C32.5482 71.2133 32.9108 70.8347 33.1775 70.344C33.4442 69.8427 33.5775 69.256 33.5775 68.584ZM40.7036 68.6C40.7036 67.6933 40.885 66.904 41.2476 66.232C41.6103 65.5493 42.1116 65.0213 42.7516 64.648C43.4023 64.2747 44.1436 64.088 44.9756 64.088C46.053 64.088 46.9383 64.3493 47.6316 64.872C48.3356 65.3947 48.7996 66.12 49.0236 67.048H47.4556C47.3063 66.5147 47.013 66.0933 46.5756 65.784C46.149 65.4747 45.6156 65.32 44.9756 65.32C44.1436 65.32 43.4716 65.608 42.9596 66.184C42.4476 66.7493 42.1916 67.5547 42.1916 68.6C42.1916 69.656 42.4476 70.472 42.9596 71.048C43.4716 71.624 44.1436 71.912 44.9756 71.912C45.6156 71.912 46.149 71.7627 46.5756 71.464C47.0023 71.1653 47.2956 70.7387 47.4556 70.184H49.0236C48.789 71.08 48.3196 71.8 47.6156 72.344C46.9116 72.8773 46.0316 73.144 44.9756 73.144C44.1436 73.144 43.4023 72.9573 42.7516 72.584C42.1116 72.2107 41.6103 71.6827 41.2476 71C40.885 70.3173 40.7036 69.5173 40.7036 68.6ZM58.9664 68.28C58.9664 68.5573 58.9504 68.8507 58.9184 69.16H51.9104C51.9637 70.024 52.257 70.7013 52.7904 71.192C53.3344 71.672 53.9904 71.912 54.7584 71.912C55.3877 71.912 55.9104 71.768 56.3264 71.48C56.753 71.1813 57.0517 70.7867 57.2224 70.296H58.7904C58.5557 71.1387 58.0864 71.8267 57.3824 72.36C56.6784 72.8827 55.8037 73.144 54.7584 73.144C53.9264 73.144 53.1797 72.9573 52.5184 72.584C51.8677 72.2107 51.3557 71.6827 50.9824 71C50.609 70.3067 50.4224 69.5067 50.4224 68.6C50.4224 67.6933 50.6037 66.8987 50.9664 66.216C51.329 65.5333 51.8357 65.0107 52.4864 64.648C53.1477 64.2747 53.905 64.088 54.7584 64.088C55.5904 64.088 56.3264 64.2693 56.9664 64.632C57.6064 64.9947 58.097 65.496 58.4384 66.136C58.7904 66.7653 58.9664 67.48 58.9664 68.28ZM57.4624 67.976C57.4624 67.4213 57.3397 66.9467 57.0944 66.552C56.849 66.1467 56.513 65.8427 56.0864 65.64C55.6704 65.4267 55.2064 65.32 54.6944 65.32C53.9584 65.32 53.329 65.5547 52.8064 66.024C52.2944 66.4933 52.001 67.144 51.9264 67.976H57.4624ZM65.1603 64.072C66.2269 64.072 67.0909 64.3973 67.7523 65.048C68.4136 65.688 68.7443 66.616 68.7443 67.832V73H67.3043V68.04C67.3043 67.1653 67.0856 66.4987 66.6483 66.04C66.2109 65.5707 65.6136 65.336 64.8563 65.336C64.0883 65.336 63.4749 65.576 63.0163 66.056C62.5683 66.536 62.3443 67.2347 62.3443 68.152V73H60.8883V64.232H62.3443V65.48C62.6323 65.032 63.0216 64.6853 63.5123 64.44C64.0136 64.1947 64.5629 64.072 65.1603 64.072ZM72.8986 65.432V70.6C72.8986 71.0267 72.9893 71.3307 73.1706 71.512C73.352 71.6827 73.6666 71.768 74.1146 71.768H75.1866V73H73.8746C73.064 73 72.456 72.8133 72.0506 72.44C71.6453 72.0667 71.4426 71.4533 71.4426 70.6V65.432H70.3066V64.232H71.4426V62.024H72.8986V64.232H75.1866V65.432H72.8986ZM84.9508 68.28C84.9508 68.5573 84.9348 68.8507 84.9028 69.16H77.8948C77.9481 70.024 78.2414 70.7013 78.7748 71.192C79.3188 71.672 79.9748 71.912 80.7428 71.912C81.3721 71.912 81.8948 71.768 82.3108 71.48C82.7374 71.1813 83.0361 70.7867 83.2068 70.296H84.7748C84.5401 71.1387 84.0708 71.8267 83.3668 72.36C82.6628 72.8827 81.7881 73.144 80.7428 73.144C79.9108 73.144 79.1641 72.9573 78.5028 72.584C77.8521 72.2107 77.3401 71.6827 76.9668 71C76.5934 70.3067 76.4068 69.5067 76.4068 68.6C76.4068 67.6933 76.5881 66.8987 76.9508 66.216C77.3134 65.5333 77.8201 65.0107 78.4708 64.648C79.1321 64.2747 79.8894 64.088 80.7428 64.088C81.5748 64.088 82.3108 64.2693 82.9508 64.632C83.5908 64.9947 84.0814 65.496 84.4228 66.136C84.7748 66.7653 84.9508 67.48 84.9508 68.28ZM83.4468 67.976C83.4468 67.4213 83.3241 66.9467 83.0788 66.552C82.8334 66.1467 82.4974 65.8427 82.0708 65.64C81.6548 65.4267 81.1908 65.32 80.6788 65.32C79.9428 65.32 79.3134 65.5547 78.7908 66.024C78.2788 66.4933 77.9854 67.144 77.9108 67.976H83.4468ZM88.3286 65.656C88.5846 65.1547 88.9473 64.7653 89.4166 64.488C89.8966 64.2107 90.478 64.072 91.1606 64.072V65.576H90.7766C89.1446 65.576 88.3286 66.4613 88.3286 68.232V73H86.8726V64.232H88.3286V65.656Z" fill="white"/>
<path d="M8.096 99.848V101.032H5.056V111H3.6V101.032H0.544V99.848H8.096ZM17.8883 106.28C17.8883 106.557 17.8723 106.851 17.8403 107.16H10.8323C10.8856 108.024 11.1789 108.701 11.7123 109.192C12.2563 109.672 12.9123 109.912 13.6803 109.912C14.3096 109.912 14.8323 109.768 15.2483 109.48C15.6749 109.181 15.9736 108.787 16.1443 108.296H17.7123C17.4776 109.139 17.0083 109.827 16.3043 110.36C15.6003 110.883 14.7256 111.144 13.6803 111.144C12.8483 111.144 12.1016 110.957 11.4403 110.584C10.7896 110.211 10.2776 109.683 9.90425 109C9.53092 108.307 9.34425 107.507 9.34425 106.6C9.34425 105.693 9.52558 104.899 9.88825 104.216C10.2509 103.533 10.7576 103.011 11.4083 102.648C12.0696 102.275 12.8269 102.088 13.6803 102.088C14.5123 102.088 15.2483 102.269 15.8883 102.632C16.5283 102.995 17.0189 103.496 17.3603 104.136C17.7123 104.765 17.8883 105.48 17.8883 106.28ZM16.3843 105.976C16.3843 105.421 16.2616 104.947 16.0163 104.552C15.7709 104.147 15.4349 103.843 15.0083 103.64C14.5923 103.427 14.1283 103.32 13.6163 103.32C12.8803 103.32 12.2509 103.555 11.7283 104.024C11.2163 104.493 10.9229 105.144 10.8483 105.976H16.3843ZM21.2661 103.656C21.5221 103.155 21.8848 102.765 22.3541 102.488C22.8341 102.211 23.4155 102.072 24.0981 102.072V103.576H23.7141C22.0821 103.576 21.2661 104.461 21.2661 106.232V111H19.8101V102.232H21.2661V103.656ZM36.3229 102.072C37.0055 102.072 37.6135 102.216 38.1469 102.504C38.6802 102.781 39.1015 103.203 39.4109 103.768C39.7202 104.333 39.8749 105.021 39.8749 105.832V111H38.4349V106.04C38.4349 105.165 38.2162 104.499 37.7789 104.04C37.3522 103.571 36.7709 103.336 36.0349 103.336C35.2775 103.336 34.6749 103.581 34.2269 104.072C33.7789 104.552 33.5549 105.251 33.5549 106.168V111H32.1149V106.04C32.1149 105.165 31.8962 104.499 31.4589 104.04C31.0322 103.571 30.4509 103.336 29.7149 103.336C28.9575 103.336 28.3549 103.581 27.9069 104.072C27.4589 104.552 27.2349 105.251 27.2349 106.168V111H25.7789V102.232H27.2349V103.496C27.5229 103.037 27.9069 102.685 28.3869 102.44C28.8775 102.195 29.4162 102.072 30.0029 102.072C30.7389 102.072 31.3895 102.237 31.9549 102.568C32.5202 102.899 32.9415 103.384 33.2189 104.024C33.4642 103.405 33.8695 102.925 34.4349 102.584C35.0002 102.243 35.6295 102.072 36.3229 102.072ZM45.3673 111.144C44.6953 111.144 44.0926 111.032 43.5593 110.808C43.0259 110.573 42.6046 110.253 42.2953 109.848C41.9859 109.432 41.8153 108.957 41.7833 108.424H43.2873C43.3299 108.861 43.5326 109.219 43.8953 109.496C44.2686 109.773 44.7539 109.912 45.3513 109.912C45.9059 109.912 46.3433 109.789 46.6633 109.544C46.9833 109.299 47.1433 108.989 47.1433 108.616C47.1433 108.232 46.9726 107.949 46.6313 107.768C46.2899 107.576 45.7619 107.389 45.0473 107.208C44.3966 107.037 43.8633 106.867 43.4473 106.696C43.0419 106.515 42.6899 106.253 42.3913 105.912C42.1033 105.56 41.9593 105.101 41.9593 104.536C41.9593 104.088 42.0926 103.677 42.3593 103.304C42.6259 102.931 43.0046 102.637 43.4953 102.424C43.9859 102.2 44.5459 102.088 45.1753 102.088C46.1459 102.088 46.9299 102.333 47.5273 102.824C48.1246 103.315 48.4446 103.987 48.4873 104.84H47.0313C46.9993 104.381 46.8126 104.013 46.4713 103.736C46.1406 103.459 45.6926 103.32 45.1273 103.32C44.6046 103.32 44.1886 103.432 43.8793 103.656C43.5699 103.88 43.4153 104.173 43.4153 104.536C43.4153 104.824 43.5059 105.064 43.6873 105.256C43.8793 105.437 44.1139 105.587 44.3913 105.704C44.6793 105.811 45.0739 105.933 45.5753 106.072C46.2046 106.243 46.7166 106.413 47.1113 106.584C47.5059 106.744 47.8419 106.989 48.1193 107.32C48.4073 107.651 48.5566 108.083 48.5673 108.616C48.5673 109.096 48.4339 109.528 48.1673 109.912C47.9006 110.296 47.5219 110.6 47.0313 110.824C46.5513 111.037 45.9966 111.144 45.3673 111.144ZM58.7123 111.144C57.8909 111.144 57.1443 110.957 56.4723 110.584C55.8109 110.211 55.2883 109.683 54.9043 109C54.5309 108.307 54.3443 107.507 54.3443 106.6C54.3443 105.704 54.5363 104.915 54.9203 104.232C55.3149 103.539 55.8483 103.011 56.5203 102.648C57.1923 102.275 57.9443 102.088 58.7763 102.088C59.6083 102.088 60.3603 102.275 61.0323 102.648C61.7043 103.011 62.2323 103.533 62.6163 104.216C63.0109 104.899 63.2083 105.693 63.2083 106.6C63.2083 107.507 63.0056 108.307 62.6003 109C62.2056 109.683 61.6669 110.211 60.9843 110.584C60.3016 110.957 59.5443 111.144 58.7123 111.144ZM58.7123 109.864C59.2349 109.864 59.7256 109.741 60.1843 109.496C60.6429 109.251 61.0109 108.883 61.2883 108.392C61.5763 107.901 61.7203 107.304 61.7203 106.6C61.7203 105.896 61.5816 105.299 61.3043 104.808C61.0269 104.317 60.6643 103.955 60.2163 103.72C59.7683 103.475 59.2829 103.352 58.7603 103.352C58.2269 103.352 57.7363 103.475 57.2883 103.72C56.8509 103.955 56.4989 104.317 56.2323 104.808C55.9656 105.299 55.8323 105.896 55.8323 106.6C55.8323 107.315 55.9603 107.917 56.2163 108.408C56.4829 108.899 56.8349 109.267 57.2723 109.512C57.7096 109.747 58.1896 109.864 58.7123 109.864ZM68.6906 103.432H66.8506V111H65.3946V103.432H64.2586V102.232H65.3946V101.608C65.3946 100.627 65.6453 99.912 66.1466 99.464C66.6586 99.0053 67.4746 98.776 68.5946 98.776V99.992C67.9546 99.992 67.5013 100.12 67.2346 100.376C66.9786 100.621 66.8506 101.032 66.8506 101.608V102.232H68.6906V103.432ZM77.7579 111.144C77.0859 111.144 76.4832 111.032 75.9499 110.808C75.4165 110.573 74.9952 110.253 74.6859 109.848C74.3765 109.432 74.2059 108.957 74.1739 108.424H75.6779C75.7205 108.861 75.9232 109.219 76.2859 109.496C76.6592 109.773 77.1445 109.912 77.7419 109.912C78.2965 109.912 78.7339 109.789 79.0539 109.544C79.3739 109.299 79.5339 108.989 79.5339 108.616C79.5339 108.232 79.3632 107.949 79.0219 107.768C78.6805 107.576 78.1525 107.389 77.4379 107.208C76.7872 107.037 76.2539 106.867 75.8379 106.696C75.4325 106.515 75.0805 106.253 74.7819 105.912C74.4939 105.56 74.3499 105.101 74.3499 104.536C74.3499 104.088 74.4832 103.677 74.7499 103.304C75.0165 102.931 75.3952 102.637 75.8859 102.424C76.3765 102.2 76.9365 102.088 77.5659 102.088C78.5365 102.088 79.3205 102.333 79.9179 102.824C80.5152 103.315 80.8352 103.987 80.8779 104.84H79.4219C79.3899 104.381 79.2032 104.013 78.8619 103.736C78.5312 103.459 78.0832 103.32 77.5179 103.32C76.9952 103.32 76.5792 103.432 76.2699 103.656C75.9605 103.88 75.8059 104.173 75.8059 104.536C75.8059 104.824 75.8965 105.064 76.0779 105.256C76.2699 105.437 76.5045 105.587 76.7819 105.704C77.0699 105.811 77.4645 105.933 77.9659 106.072C78.5952 106.243 79.1072 106.413 79.5019 106.584C79.8965 106.744 80.2325 106.989 80.5099 107.32C80.7979 107.651 80.9472 108.083 80.9579 108.616C80.9579 109.096 80.8245 109.528 80.5579 109.912C80.2912 110.296 79.9125 110.6 79.4219 110.824C78.9419 111.037 78.3872 111.144 77.7579 111.144ZM91.0133 106.28C91.0133 106.557 90.9973 106.851 90.9653 107.16H83.9573C84.0106 108.024 84.3039 108.701 84.8373 109.192C85.3813 109.672 86.0373 109.912 86.8053 109.912C87.4346 109.912 87.9573 109.768 88.3733 109.48C88.7999 109.181 89.0986 108.787 89.2693 108.296H90.8373C90.6026 109.139 90.1333 109.827 89.4293 110.36C88.7253 110.883 87.8506 111.144 86.8053 111.144C85.9733 111.144 85.2266 110.957 84.5653 110.584C83.9146 110.211 83.4026 109.683 83.0293 109C82.6559 108.307 82.4693 107.507 82.4693 106.6C82.4693 105.693 82.6506 104.899 83.0133 104.216C83.3759 103.533 83.8826 103.011 84.5333 102.648C85.1946 102.275 85.9519 102.088 86.8053 102.088C87.6373 102.088 88.3733 102.269 89.0133 102.632C89.6533 102.995 90.1439 103.496 90.4853 104.136C90.8373 104.765 91.0133 105.48 91.0133 106.28ZM89.5093 105.976C89.5093 105.421 89.3866 104.947 89.1413 104.552C88.8959 104.147 88.5599 103.843 88.1333 103.64C87.7173 103.427 87.2533 103.32 86.7413 103.32C86.0053 103.32 85.3759 103.555 84.8533 104.024C84.3413 104.493 84.0479 105.144 83.9733 105.976H89.5093ZM94.3911 103.656C94.6471 103.155 95.0098 102.765 95.4791 102.488C95.9591 102.211 96.5405 102.072 97.2231 102.072V103.576H96.8391C95.2071 103.576 94.3911 104.461 94.3911 106.232V111H92.9351V102.232H94.3911V103.656ZM102.168 109.656L104.888 102.232H106.44L103 111H101.304L97.8639 102.232H99.4319L102.168 109.656ZM108.625 100.808C108.347 100.808 108.113 100.712 107.921 100.52C107.729 100.328 107.633 100.093 107.633 99.816C107.633 99.5387 107.729 99.304 107.921 99.112C108.113 98.92 108.347 98.824 108.625 98.824C108.891 98.824 109.115 98.92 109.297 99.112C109.489 99.304 109.585 99.5387 109.585 99.816C109.585 100.093 109.489 100.328 109.297 100.52C109.115 100.712 108.891 100.808 108.625 100.808ZM109.329 102.232V111H107.873V102.232H109.329ZM111.266 106.6C111.266 105.693 111.447 104.904 111.81 104.232C112.173 103.549 112.674 103.021 113.314 102.648C113.965 102.275 114.706 102.088 115.538 102.088C116.615 102.088 117.501 102.349 118.194 102.872C118.898 103.395 119.362 104.12 119.586 105.048H118.018C117.869 104.515 117.575 104.093 117.138 103.784C116.711 103.475 116.178 103.32 115.538 103.32C114.706 103.32 114.034 103.608 113.522 104.184C113.01 104.749 112.754 105.555 112.754 106.6C112.754 107.656 113.01 108.472 113.522 109.048C114.034 109.624 114.706 109.912 115.538 109.912C116.178 109.912 116.711 109.763 117.138 109.464C117.565 109.165 117.858 108.739 118.018 108.184H119.586C119.351 109.08 118.882 109.8 118.178 110.344C117.474 110.877 116.594 111.144 115.538 111.144C114.706 111.144 113.965 110.957 113.314 110.584C112.674 110.211 112.173 109.683 111.81 109C111.447 108.317 111.266 107.517 111.266 106.6ZM129.529 106.28C129.529 106.557 129.513 106.851 129.481 107.16H122.473C122.526 108.024 122.82 108.701 123.353 109.192C123.897 109.672 124.553 109.912 125.321 109.912C125.95 109.912 126.473 109.768 126.889 109.48C127.316 109.181 127.614 108.787 127.785 108.296H129.353C129.118 109.139 128.649 109.827 127.945 110.36C127.241 110.883 126.366 111.144 125.321 111.144C124.489 111.144 123.742 110.957 123.081 110.584C122.43 110.211 121.918 109.683 121.545 109C121.172 108.307 120.985 107.507 120.985 106.6C120.985 105.693 121.166 104.899 121.529 104.216C121.892 103.533 122.398 103.011 123.049 102.648C123.71 102.275 124.468 102.088 125.321 102.088C126.153 102.088 126.889 102.269 127.529 102.632C128.169 102.995 128.66 103.496 129.001 104.136C129.353 104.765 129.529 105.48 129.529 106.28ZM128.025 105.976C128.025 105.421 127.902 104.947 127.657 104.552C127.412 104.147 127.076 103.843 126.649 103.64C126.233 103.427 125.769 103.32 125.257 103.32C124.521 103.32 123.892 103.555 123.369 104.024C122.857 104.493 122.564 105.144 122.489 105.976H128.025Z" fill="white"/>
<path d="M2.688 147.816H6.592V149H1.232V137.848H2.688V147.816ZM16.1383 144.28C16.1383 144.557 16.1223 144.851 16.0903 145.16H9.08225C9.13558 146.024 9.42892 146.701 9.96225 147.192C10.5063 147.672 11.1623 147.912 11.9303 147.912C12.5596 147.912 13.0823 147.768 13.4983 147.48C13.9249 147.181 14.2236 146.787 14.3943 146.296H15.9623C15.7276 147.139 15.2583 147.827 14.5543 148.36C13.8503 148.883 12.9756 149.144 11.9303 149.144C11.0983 149.144 10.3516 148.957 9.69025 148.584C9.03958 148.211 8.52758 147.683 8.15425 147C7.78092 146.307 7.59425 145.507 7.59425 144.6C7.59425 143.693 7.77558 142.899 8.13825 142.216C8.50092 141.533 9.00758 141.011 9.65825 140.648C10.3196 140.275 11.0769 140.088 11.9303 140.088C12.7623 140.088 13.4983 140.269 14.1383 140.632C14.7783 140.995 15.2689 141.496 15.6103 142.136C15.9623 142.765 16.1383 143.48 16.1383 144.28ZM14.6343 143.976C14.6343 143.421 14.5116 142.947 14.2663 142.552C14.0209 142.147 13.6849 141.843 13.2583 141.64C12.8423 141.427 12.3783 141.32 11.8663 141.32C11.1303 141.32 10.5009 141.555 9.97825 142.024C9.46625 142.493 9.17292 143.144 9.09825 143.976H14.6343ZM21.6761 140.088C22.4335 140.088 23.0948 140.253 23.6601 140.584C24.2361 140.915 24.6628 141.331 24.9401 141.832V140.232H26.4121V149.192C26.4121 149.992 26.2415 150.701 25.9001 151.32C25.5588 151.949 25.0681 152.44 24.4281 152.792C23.7988 153.144 23.0628 153.32 22.2201 153.32C21.0681 153.32 20.1081 153.048 19.3401 152.504C18.5721 151.96 18.1188 151.219 17.9801 150.28H19.4201C19.5801 150.813 19.9108 151.24 20.4121 151.56C20.9135 151.891 21.5161 152.056 22.2201 152.056C23.0201 152.056 23.6708 151.805 24.1721 151.304C24.6841 150.803 24.9401 150.099 24.9401 149.192V147.352C24.6521 147.864 24.2255 148.291 23.6601 148.632C23.0948 148.973 22.4335 149.144 21.6761 149.144C20.8975 149.144 20.1881 148.952 19.5481 148.568C18.9188 148.184 18.4228 147.645 18.0601 146.952C17.6975 146.259 17.5161 145.469 17.5161 144.584C17.5161 143.688 17.6975 142.904 18.0601 142.232C18.4228 141.549 18.9188 141.021 19.5481 140.648C20.1881 140.275 20.8975 140.088 21.6761 140.088ZM24.9401 144.6C24.9401 143.939 24.8068 143.363 24.5401 142.872C24.2735 142.381 23.9108 142.008 23.4521 141.752C23.0041 141.485 22.5081 141.352 21.9641 141.352C21.4201 141.352 20.9241 141.48 20.4761 141.736C20.0281 141.992 19.6708 142.365 19.4041 142.856C19.1375 143.347 19.0041 143.923 19.0041 144.584C19.0041 145.256 19.1375 145.843 19.4041 146.344C19.6708 146.835 20.0281 147.213 20.4761 147.48C20.9241 147.736 21.4201 147.864 21.9641 147.864C22.5081 147.864 23.0041 147.736 23.4521 147.48C23.9108 147.213 24.2735 146.835 24.5401 146.344C24.8068 145.843 24.9401 145.261 24.9401 144.6ZM28.3286 144.584C28.3286 143.688 28.51 142.904 28.8726 142.232C29.2353 141.549 29.7313 141.021 30.3606 140.648C31.0006 140.275 31.71 140.088 32.4886 140.088C33.2566 140.088 33.9233 140.253 34.4886 140.584C35.054 140.915 35.4753 141.331 35.7526 141.832V140.232H37.2246V149H35.7526V147.368C35.4646 147.88 35.0326 148.307 34.4566 148.648C33.8913 148.979 33.23 149.144 32.4726 149.144C31.694 149.144 30.99 148.952 30.3606 148.568C29.7313 148.184 29.2353 147.645 28.8726 146.952C28.51 146.259 28.3286 145.469 28.3286 144.584ZM35.7526 144.6C35.7526 143.939 35.6193 143.363 35.3526 142.872C35.086 142.381 34.7233 142.008 34.2646 141.752C33.8166 141.485 33.3206 141.352 32.7766 141.352C32.2326 141.352 31.7366 141.48 31.2886 141.736C30.8406 141.992 30.4833 142.365 30.2166 142.856C29.95 143.347 29.8166 143.923 29.8166 144.584C29.8166 145.256 29.95 145.843 30.2166 146.344C30.4833 146.835 30.8406 147.213 31.2886 147.48C31.7366 147.736 32.2326 147.864 32.7766 147.864C33.3206 147.864 33.8166 147.736 34.2646 147.48C34.7233 147.213 35.086 146.835 35.3526 146.344C35.6193 145.843 35.7526 145.261 35.7526 144.6ZM41.1411 137.16V149H39.6851V137.16H41.1411Z" fill="white"/>
<path d="M8.688 179.112C8.688 180.04 8.368 180.813 7.728 181.432C7.09867 182.04 6.13333 182.344 4.832 182.344H2.688V187H1.232V175.848H4.832C6.09067 175.848 7.04533 176.152 7.696 176.76C8.35733 177.368 8.688 178.152 8.688 179.112ZM4.832 181.144C5.64267 181.144 6.24 180.968 6.624 180.616C7.008 180.264 7.2 179.763 7.2 179.112C7.2 177.736 6.41067 177.048 4.832 177.048H2.688V181.144H4.832ZM11.9536 179.656C12.2096 179.155 12.5723 178.765 13.0416 178.488C13.5216 178.211 14.103 178.072 14.7856 178.072V179.576H14.4016C12.7696 179.576 11.9536 180.461 11.9536 182.232V187H10.4976V178.232H11.9536V179.656ZM17.2184 176.808C16.941 176.808 16.7064 176.712 16.5144 176.52C16.3224 176.328 16.2264 176.093 16.2264 175.816C16.2264 175.539 16.3224 175.304 16.5144 175.112C16.7064 174.92 16.941 174.824 17.2184 174.824C17.485 174.824 17.709 174.92 17.8904 175.112C18.0824 175.304 18.1784 175.539 18.1784 175.816C18.1784 176.093 18.0824 176.328 17.8904 176.52C17.709 176.712 17.485 176.808 17.2184 176.808ZM17.9224 178.232V187H16.4664V178.232H17.9224ZM23.6679 185.656L26.3879 178.232H27.9399L24.4999 187H22.8039L19.3639 178.232H20.9319L23.6679 185.656ZM28.8286 182.584C28.8286 181.688 29.01 180.904 29.3726 180.232C29.7353 179.549 30.2313 179.021 30.8606 178.648C31.5006 178.275 32.21 178.088 32.9886 178.088C33.7566 178.088 34.4233 178.253 34.9886 178.584C35.554 178.915 35.9753 179.331 36.2526 179.832V178.232H37.7246V187H36.2526V185.368C35.9646 185.88 35.5326 186.307 34.9566 186.648C34.3913 186.979 33.73 187.144 32.9726 187.144C32.194 187.144 31.49 186.952 30.8606 186.568C30.2313 186.184 29.7353 185.645 29.3726 184.952C29.01 184.259 28.8286 183.469 28.8286 182.584ZM36.2526 182.6C36.2526 181.939 36.1193 181.363 35.8526 180.872C35.586 180.381 35.2233 180.008 34.7646 179.752C34.3166 179.485 33.8206 179.352 33.2766 179.352C32.7326 179.352 32.2366 179.48 31.7886 179.736C31.3406 179.992 30.9833 180.365 30.7166 180.856C30.45 181.347 30.3166 181.923 30.3166 182.584C30.3166 183.256 30.45 183.843 30.7166 184.344C30.9833 184.835 31.3406 185.213 31.7886 185.48C32.2366 185.736 32.7326 185.864 33.2766 185.864C33.8206 185.864 34.3166 185.736 34.7646 185.48C35.2233 185.213 35.586 184.835 35.8526 184.344C36.1193 183.843 36.2526 183.261 36.2526 182.6ZM39.6411 182.6C39.6411 181.693 39.8225 180.904 40.1851 180.232C40.5478 179.549 41.0491 179.021 41.6891 178.648C42.3398 178.275 43.0811 178.088 43.9131 178.088C44.9905 178.088 45.8758 178.349 46.5691 178.872C47.2731 179.395 47.7371 180.12 47.9611 181.048H46.3931C46.2438 180.515 45.9505 180.093 45.5131 179.784C45.0865 179.475 44.5531 179.32 43.9131 179.32C43.0811 179.32 42.4091 179.608 41.8971 180.184C41.3851 180.749 41.1291 181.555 41.1291 182.6C41.1291 183.656 41.3851 184.472 41.8971 185.048C42.4091 185.624 43.0811 185.912 43.9131 185.912C44.5531 185.912 45.0865 185.763 45.5131 185.464C45.9398 185.165 46.2331 184.739 46.3931 184.184H47.9611C47.7265 185.08 47.2571 185.8 46.5531 186.344C45.8491 186.877 44.9691 187.144 43.9131 187.144C43.0811 187.144 42.3398 186.957 41.6891 186.584C41.0491 186.211 40.5478 185.683 40.1851 185C39.8225 184.317 39.6411 183.517 39.6411 182.6ZM57.4559 178.232L52.1759 191.128H50.6719L52.3999 186.904L48.8639 178.232H50.4799L53.2319 185.336L55.9519 178.232H57.4559ZM64.6411 179.848C64.9291 179.347 65.3558 178.931 65.9211 178.6C66.4971 178.259 67.1638 178.088 67.9211 178.088C68.6998 178.088 69.4038 178.275 70.0331 178.648C70.6731 179.021 71.1745 179.549 71.5371 180.232C71.8998 180.904 72.0811 181.688 72.0811 182.584C72.0811 183.469 71.8998 184.259 71.5371 184.952C71.1745 185.645 70.6731 186.184 70.0331 186.568C69.4038 186.952 68.6998 187.144 67.9211 187.144C67.1745 187.144 66.5131 186.979 65.9371 186.648C65.3718 186.307 64.9398 185.885 64.6411 185.384V191.16H63.1851V178.232H64.6411V179.848ZM70.5931 182.584C70.5931 181.923 70.4598 181.347 70.1931 180.856C69.9265 180.365 69.5638 179.992 69.1051 179.736C68.6571 179.48 68.1611 179.352 67.6171 179.352C67.0838 179.352 66.5878 179.485 66.1291 179.752C65.6811 180.008 65.3185 180.387 65.0411 180.888C64.7745 181.379 64.6411 181.949 64.6411 182.6C64.6411 183.261 64.7745 183.843 65.0411 184.344C65.3185 184.835 65.6811 185.213 66.1291 185.48C66.5878 185.736 67.0838 185.864 67.6171 185.864C68.1611 185.864 68.6571 185.736 69.1051 185.48C69.5638 185.213 69.9265 184.835 70.1931 184.344C70.4598 183.843 70.5931 183.256 70.5931 182.584ZM77.8216 187.144C77.0003 187.144 76.2536 186.957 75.5816 186.584C74.9203 186.211 74.3976 185.683 74.0136 185C73.6403 184.307 73.4536 183.507 73.4536 182.6C73.4536 181.704 73.6456 180.915 74.0296 180.232C74.4243 179.539 74.9576 179.011 75.6296 178.648C76.3016 178.275 77.0536 178.088 77.8856 178.088C78.7176 178.088 79.4696 178.275 80.1416 178.648C80.8136 179.011 81.3416 179.533 81.7256 180.216C82.1203 180.899 82.3176 181.693 82.3176 182.6C82.3176 183.507 82.115 184.307 81.7096 185C81.315 185.683 80.7763 186.211 80.0936 186.584C79.411 186.957 78.6536 187.144 77.8216 187.144ZM77.8216 185.864C78.3443 185.864 78.835 185.741 79.2936 185.496C79.7523 185.251 80.1203 184.883 80.3976 184.392C80.6856 183.901 80.8296 183.304 80.8296 182.6C80.8296 181.896 80.691 181.299 80.4136 180.808C80.1363 180.317 79.7736 179.955 79.3256 179.72C78.8776 179.475 78.3923 179.352 77.8696 179.352C77.3363 179.352 76.8456 179.475 76.3976 179.72C75.9603 179.955 75.6083 180.317 75.3416 180.808C75.075 181.299 74.9416 181.896 74.9416 182.6C74.9416 183.315 75.0696 183.917 75.3256 184.408C75.5923 184.899 75.9443 185.267 76.3816 185.512C76.819 185.747 77.299 185.864 77.8216 185.864ZM85.688 175.16V187H84.232V175.16H85.688ZM88.9215 176.808C88.6442 176.808 88.4095 176.712 88.2175 176.52C88.0255 176.328 87.9295 176.093 87.9295 175.816C87.9295 175.539 88.0255 175.304 88.2175 175.112C88.4095 174.92 88.6442 174.824 88.9215 174.824C89.1882 174.824 89.4122 174.92 89.5935 175.112C89.7855 175.304 89.8815 175.539 89.8815 175.816C89.8815 176.093 89.7855 176.328 89.5935 176.52C89.4122 176.712 89.1882 176.808 88.9215 176.808ZM89.6255 178.232V187H88.1695V178.232H89.6255ZM91.563 182.6C91.563 181.693 91.7443 180.904 92.107 180.232C92.4697 179.549 92.971 179.021 93.611 178.648C94.2617 178.275 95.003 178.088 95.835 178.088C96.9123 178.088 97.7977 178.349 98.491 178.872C99.195 179.395 99.659 180.12 99.883 181.048H98.315C98.1657 180.515 97.8723 180.093 97.435 179.784C97.0083 179.475 96.475 179.32 95.835 179.32C95.003 179.32 94.331 179.608 93.819 180.184C93.307 180.749 93.051 181.555 93.051 182.6C93.051 183.656 93.307 184.472 93.819 185.048C94.331 185.624 95.003 185.912 95.835 185.912C96.475 185.912 97.0083 185.763 97.435 185.464C97.8617 185.165 98.155 184.739 98.315 184.184H99.883C99.6483 185.08 99.179 185.8 98.475 186.344C97.771 186.877 96.891 187.144 95.835 187.144C95.003 187.144 94.2617 186.957 93.611 186.584C92.971 186.211 92.4697 185.683 92.107 185C91.7443 184.317 91.563 183.517 91.563 182.6ZM109.378 178.232L104.098 191.128H102.594L104.322 186.904L100.786 178.232H102.402L105.154 185.336L107.874 178.232H109.378Z" fill="white"/>
</g>
</g>
<defs>
<clipPath id="clip0_50_1847">
<rect width="160" height="194" fill="white"/>
</clipPath>
<clipPath id="clip1_50_1847">
<rect width="160" height="140" fill="white" transform="translate(0 54)"/>
</clipPath>
</defs>
</svg>
