<svg width="160" height="102" viewBox="0 0 160 102" fill="none" xmlns="http://www.w3.org/2000/svg">
<g clip-path="url(#clip0_50_1843)">
<path d="M2.688 9.032V12.76H6.752V13.96H2.688V17.8H7.232V19H1.232V7.832H7.232V9.032H2.688ZM14.0111 19L11.9311 15.736L9.93113 19H8.41113L11.2431 14.648L8.41113 10.232H10.0591L12.1391 13.48L14.1231 10.232H15.6431L12.8271 14.568L15.6591 19H14.0111ZM18.5474 11.848C18.8354 11.3467 19.262 10.9307 19.8274 10.6C20.4034 10.2587 21.07 10.088 21.8274 10.088C22.606 10.088 23.31 10.2747 23.9394 10.648C24.5794 11.0213 25.0807 11.5493 25.4434 12.232C25.806 12.904 25.9874 13.688 25.9874 14.584C25.9874 15.4693 25.806 16.2587 25.4434 16.952C25.0807 17.6453 24.5794 18.184 23.9394 18.568C23.31 18.952 22.606 19.144 21.8274 19.144C21.0807 19.144 20.4194 18.9787 19.8434 18.648C19.278 18.3067 18.846 17.8853 18.5474 17.384V23.16H17.0914V10.232H18.5474V11.848ZM24.4994 14.584C24.4994 13.9227 24.366 13.3467 24.0994 12.856C23.8327 12.3653 23.47 11.992 23.0114 11.736C22.5634 11.48 22.0674 11.352 21.5234 11.352C20.99 11.352 20.494 11.4853 20.0354 11.752C19.5874 12.008 19.2247 12.3867 18.9474 12.888C18.6807 13.3787 18.5474 13.9493 18.5474 14.6C18.5474 15.2613 18.6807 15.8427 18.9474 16.344C19.2247 16.8347 19.5874 17.2133 20.0354 17.48C20.494 17.736 20.99 17.864 21.5234 17.864C22.0674 17.864 22.5634 17.736 23.0114 17.48C23.47 17.2133 23.8327 16.8347 24.0994 16.344C24.366 15.8427 24.4994 15.256 24.4994 14.584ZM29.3599 7.16V19H27.9039V7.16H29.3599ZM35.6654 19.144C34.844 19.144 34.0974 18.9573 33.4254 18.584C32.764 18.2107 32.2414 17.6827 31.8574 17C31.484 16.3067 31.2974 15.5067 31.2974 14.6C31.2974 13.704 31.4894 12.9147 31.8734 12.232C32.268 11.5387 32.8014 11.0107 33.4734 10.648C34.1454 10.2747 34.8974 10.088 35.7294 10.088C36.5614 10.088 37.3134 10.2747 37.9854 10.648C38.6574 11.0107 39.1854 11.5333 39.5694 12.216C39.964 12.8987 40.1614 13.6933 40.1614 14.6C40.1614 15.5067 39.9587 16.3067 39.5534 17C39.1587 17.6827 38.62 18.2107 37.9374 18.584C37.2547 18.9573 36.4974 19.144 35.6654 19.144ZM35.6654 17.864C36.188 17.864 36.6787 17.7413 37.1374 17.496C37.596 17.2507 37.964 16.8827 38.2414 16.392C38.5294 15.9013 38.6734 15.304 38.6734 14.6C38.6734 13.896 38.5347 13.2987 38.2574 12.808C37.98 12.3173 37.6174 11.9547 37.1694 11.72C36.7214 11.4747 36.236 11.352 35.7134 11.352C35.18 11.352 34.6894 11.4747 34.2414 11.72C33.804 11.9547 33.452 12.3173 33.1854 12.808C32.9187 13.2987 32.7854 13.896 32.7854 14.6C32.7854 15.3147 32.9134 15.9173 33.1694 16.408C33.436 16.8987 33.788 17.2667 34.2254 17.512C34.6627 17.7467 35.1427 17.864 35.6654 17.864ZM43.5318 11.656C43.7878 11.1547 44.1504 10.7653 44.6198 10.488C45.0998 10.2107 45.6811 10.072 46.3638 10.072V11.576H45.9798C44.3478 11.576 43.5318 12.4613 43.5318 14.232V19H42.0758V10.232H43.5318V11.656ZM56.0445 14.28C56.0445 14.5573 56.0285 14.8507 55.9965 15.16H48.9885C49.0418 16.024 49.3352 16.7013 49.8685 17.192C50.4125 17.672 51.0685 17.912 51.8365 17.912C52.4658 17.912 52.9885 17.768 53.4045 17.48C53.8312 17.1813 54.1298 16.7867 54.3005 16.296H55.8685C55.6338 17.1387 55.1645 17.8267 54.4605 18.36C53.7565 18.8827 52.8818 19.144 51.8365 19.144C51.0045 19.144 50.2578 18.9573 49.5965 18.584C48.9458 18.2107 48.4338 17.6827 48.0605 17C47.6872 16.3067 47.5005 15.5067 47.5005 14.6C47.5005 13.6933 47.6818 12.8987 48.0445 12.216C48.4072 11.5333 48.9138 11.0107 49.5645 10.648C50.2258 10.2747 50.9832 10.088 51.8365 10.088C52.6685 10.088 53.4045 10.2693 54.0445 10.632C54.6845 10.9947 55.1752 11.496 55.5165 12.136C55.8685 12.7653 56.0445 13.48 56.0445 14.28ZM54.5405 13.976C54.5405 13.4213 54.4178 12.9467 54.1725 12.552C53.9272 12.1467 53.5912 11.8427 53.1645 11.64C52.7485 11.4267 52.2845 11.32 51.7725 11.32C51.0365 11.32 50.4072 11.5547 49.8845 12.024C49.3725 12.4933 49.0792 13.144 49.0045 13.976H54.5405Z" fill="white"/>
<path d="M9.824 45.848V57H8.368V51.944H2.688V57H1.232V45.848H2.688V50.744H8.368V45.848H9.824ZM16.1341 57.144C15.3128 57.144 14.5661 56.9573 13.8941 56.584C13.2328 56.2107 12.7101 55.6827 12.3261 55C11.9528 54.3067 11.7661 53.5067 11.7661 52.6C11.7661 51.704 11.9581 50.9147 12.3421 50.232C12.7368 49.5387 13.2701 49.0107 13.9421 48.648C14.6141 48.2747 15.3661 48.088 16.1981 48.088C17.0301 48.088 17.7821 48.2747 18.4541 48.648C19.1261 49.0107 19.6541 49.5333 20.0381 50.216C20.4328 50.8987 20.6301 51.6933 20.6301 52.6C20.6301 53.5067 20.4275 54.3067 20.0221 55C19.6275 55.6827 19.0888 56.2107 18.4061 56.584C17.7235 56.9573 16.9661 57.144 16.1341 57.144ZM16.1341 55.864C16.6568 55.864 17.1475 55.7413 17.6061 55.496C18.0648 55.2507 18.4328 54.8827 18.7101 54.392C18.9981 53.9013 19.1421 53.304 19.1421 52.6C19.1421 51.896 19.0035 51.2987 18.7261 50.808C18.4488 50.3173 18.0861 49.9547 17.6381 49.72C17.1901 49.4747 16.7048 49.352 16.1821 49.352C15.6488 49.352 15.1581 49.4747 14.7101 49.72C14.2728 49.9547 13.9208 50.3173 13.6541 50.808C13.3875 51.2987 13.2541 51.896 13.2541 52.6C13.2541 53.3147 13.3821 53.9173 13.6381 54.408C13.9048 54.8987 14.2568 55.2667 14.6941 55.512C15.1315 55.7467 15.6115 55.864 16.1341 55.864ZM34.2245 48.232L31.4885 57H29.9845L27.8725 50.04L25.7605 57H24.2565L21.5045 48.232H22.9925L25.0085 55.592L27.1845 48.232H28.6725L30.8005 55.608L32.7845 48.232H34.2245ZM40.6871 46.808C40.4098 46.808 40.1751 46.712 39.9831 46.52C39.7911 46.328 39.6951 46.0933 39.6951 45.816C39.6951 45.5387 39.7911 45.304 39.9831 45.112C40.1751 44.92 40.4098 44.824 40.6871 44.824C40.9538 44.824 41.1778 44.92 41.3591 45.112C41.5511 45.304 41.6471 45.5387 41.6471 45.816C41.6471 46.0933 41.5511 46.328 41.3591 46.52C41.1778 46.712 40.9538 46.808 40.6871 46.808ZM41.3911 48.232V57H39.9351V48.232H41.3911ZM45.6486 49.432V54.6C45.6486 55.0267 45.7393 55.3307 45.9206 55.512C46.102 55.6827 46.4166 55.768 46.8646 55.768H47.9366V57H46.6246C45.814 57 45.206 56.8133 44.8006 56.44C44.3953 56.0667 44.1926 55.4533 44.1926 54.6V49.432H43.0566V48.232H44.1926V46.024H45.6486V48.232H47.9366V49.432H45.6486ZM67.9824 45.848L64.7504 57H63.1184L60.5264 48.024L57.8384 57L56.2224 57.016L53.1024 45.848H54.6544L57.0864 55.304L59.7744 45.848H61.4064L63.9664 55.272L66.4144 45.848H67.9824ZM73.3998 57.144C72.5784 57.144 71.8318 56.9573 71.1598 56.584C70.4984 56.2107 69.9758 55.6827 69.5918 55C69.2184 54.3067 69.0318 53.5067 69.0318 52.6C69.0318 51.704 69.2238 50.9147 69.6078 50.232C70.0024 49.5387 70.5358 49.0107 71.2078 48.648C71.8798 48.2747 72.6318 48.088 73.4638 48.088C74.2958 48.088 75.0478 48.2747 75.7198 48.648C76.3918 49.0107 76.9198 49.5333 77.3038 50.216C77.6984 50.8987 77.8958 51.6933 77.8958 52.6C77.8958 53.5067 77.6931 54.3067 77.2878 55C76.8931 55.6827 76.3544 56.2107 75.6718 56.584C74.9891 56.9573 74.2318 57.144 73.3998 57.144ZM73.3998 55.864C73.9224 55.864 74.4131 55.7413 74.8718 55.496C75.3304 55.2507 75.6984 54.8827 75.9758 54.392C76.2638 53.9013 76.4078 53.304 76.4078 52.6C76.4078 51.896 76.2691 51.2987 75.9918 50.808C75.7144 50.3173 75.3518 49.9547 74.9038 49.72C74.4558 49.4747 73.9704 49.352 73.4478 49.352C72.9144 49.352 72.4238 49.4747 71.9758 49.72C71.5384 49.9547 71.1864 50.3173 70.9198 50.808C70.6531 51.2987 70.5198 51.896 70.5198 52.6C70.5198 53.3147 70.6478 53.9173 70.9038 54.408C71.1704 54.8987 71.5224 55.2667 71.9598 55.512C72.3971 55.7467 72.8771 55.864 73.3998 55.864ZM81.2661 49.656C81.5221 49.1547 81.8848 48.7653 82.3541 48.488C82.8341 48.2107 83.4155 48.072 84.0981 48.072V49.576H83.7141C82.0821 49.576 81.2661 50.4613 81.2661 52.232V57H79.8101V48.232H81.2661V49.656ZM90.6749 57L87.2349 53.128V57H85.7789V45.16H87.2349V52.12L90.6109 48.232H92.6429L88.5149 52.6L92.6589 57H90.6749ZM97.1173 57.144C96.4453 57.144 95.8426 57.032 95.3093 56.808C94.7759 56.5733 94.3546 56.2533 94.0453 55.848C93.7359 55.432 93.5653 54.9573 93.5333 54.424H95.0373C95.0799 54.8613 95.2826 55.2187 95.6453 55.496C96.0186 55.7733 96.5039 55.912 97.1013 55.912C97.6559 55.912 98.0933 55.7893 98.4133 55.544C98.7333 55.2987 98.8933 54.9893 98.8933 54.616C98.8933 54.232 98.7226 53.9493 98.3813 53.768C98.0399 53.576 97.5119 53.3893 96.7973 53.208C96.1466 53.0373 95.6133 52.8667 95.1973 52.696C94.7919 52.5147 94.4399 52.2533 94.1413 51.912C93.8533 51.56 93.7093 51.1013 93.7093 50.536C93.7093 50.088 93.8426 49.6773 94.1093 49.304C94.3759 48.9307 94.7546 48.6373 95.2453 48.424C95.7359 48.2 96.2959 48.088 96.9253 48.088C97.8959 48.088 98.6799 48.3333 99.2773 48.824C99.8746 49.3147 100.195 49.9867 100.237 50.84H98.7813C98.7493 50.3813 98.5626 50.0133 98.2213 49.736C97.8906 49.4587 97.4426 49.32 96.8773 49.32C96.3546 49.32 95.9386 49.432 95.6293 49.656C95.3199 49.88 95.1653 50.1733 95.1653 50.536C95.1653 50.824 95.2559 51.064 95.4373 51.256C95.6293 51.4373 95.8639 51.5867 96.1413 51.704C96.4293 51.8107 96.8239 51.9333 97.3253 52.072C97.9546 52.2427 98.4666 52.4133 98.8613 52.584C99.2559 52.744 99.5919 52.9893 99.8693 53.32C100.157 53.6507 100.307 54.0827 100.317 54.616C100.317 55.096 100.184 55.528 99.9173 55.912C99.6506 56.296 99.2719 56.6 98.7813 56.824C98.3013 57.0373 97.7466 57.144 97.1173 57.144Z" fill="white"/>
<path d="M0.688 89.416C0.688 88.328 0.933333 87.352 1.424 86.488C1.91467 85.6133 2.58133 84.9307 3.424 84.44C4.27733 83.9493 5.22133 83.704 6.256 83.704C7.472 83.704 8.53333 83.9973 9.44 84.584C10.3467 85.1707 11.008 86.0027 11.424 87.08H9.68C9.37067 86.408 8.92267 85.8907 8.336 85.528C7.76 85.1653 7.06667 84.984 6.256 84.984C5.47733 84.984 4.77867 85.1653 4.16 85.528C3.54133 85.8907 3.056 86.408 2.704 87.08C2.352 87.7413 2.176 88.52 2.176 89.416C2.176 90.3013 2.352 91.08 2.704 91.752C3.056 92.4133 3.54133 92.9253 4.16 93.288C4.77867 93.6507 5.47733 93.832 6.256 93.832C7.06667 93.832 7.76 93.656 8.336 93.304C8.92267 92.9413 9.37067 92.424 9.68 91.752H11.424C11.008 92.8187 10.3467 93.6453 9.44 94.232C8.53333 94.808 7.472 95.096 6.256 95.096C5.22133 95.096 4.27733 94.856 3.424 94.376C2.58133 93.8853 1.91467 93.208 1.424 92.344C0.933333 91.48 0.688 90.504 0.688 89.416ZM17.4154 95.144C16.594 95.144 15.8474 94.9573 15.1754 94.584C14.514 94.2107 13.9914 93.6827 13.6074 93C13.234 92.3067 13.0474 91.5067 13.0474 90.6C13.0474 89.704 13.2394 88.9147 13.6234 88.232C14.018 87.5387 14.5514 87.0107 15.2234 86.648C15.8954 86.2747 16.6474 86.088 17.4794 86.088C18.3114 86.088 19.0634 86.2747 19.7354 86.648C20.4074 87.0107 20.9354 87.5333 21.3194 88.216C21.714 88.8987 21.9114 89.6933 21.9114 90.6C21.9114 91.5067 21.7087 92.3067 21.3034 93C20.9087 93.6827 20.37 94.2107 19.6874 94.584C19.0047 94.9573 18.2474 95.144 17.4154 95.144ZM17.4154 93.864C17.938 93.864 18.4287 93.7413 18.8874 93.496C19.346 93.2507 19.714 92.8827 19.9914 92.392C20.2794 91.9013 20.4234 91.304 20.4234 90.6C20.4234 89.896 20.2847 89.2987 20.0074 88.808C19.73 88.3173 19.3674 87.9547 18.9194 87.72C18.4714 87.4747 17.986 87.352 17.4634 87.352C16.93 87.352 16.4394 87.4747 15.9914 87.72C15.554 87.9547 15.202 88.3173 14.9354 88.808C14.6687 89.2987 14.5354 89.896 14.5354 90.6C14.5354 91.3147 14.6634 91.9173 14.9194 92.408C15.186 92.8987 15.538 93.2667 15.9754 93.512C16.4127 93.7467 16.8927 93.864 17.4154 93.864ZM28.0978 86.072C29.1644 86.072 30.0284 86.3973 30.6898 87.048C31.3511 87.688 31.6818 88.616 31.6818 89.832V95H30.2418V90.04C30.2418 89.1653 30.0231 88.4987 29.5858 88.04C29.1484 87.5707 28.5511 87.336 27.7938 87.336C27.0258 87.336 26.4124 87.576 25.9538 88.056C25.5058 88.536 25.2818 89.2347 25.2818 90.152V95H23.8258V86.232H25.2818V87.48C25.5698 87.032 25.9591 86.6853 26.4498 86.44C26.9511 86.1947 27.5004 86.072 28.0978 86.072ZM35.8361 87.432V92.6C35.8361 93.0267 35.9268 93.3307 36.1081 93.512C36.2895 93.6827 36.6041 93.768 37.0521 93.768H38.1241V95H36.8121C36.0015 95 35.3935 94.8133 34.9881 94.44C34.5828 94.0667 34.3801 93.4533 34.3801 92.6V87.432H33.2441V86.232H34.3801V84.024H35.8361V86.232H38.1241V87.432H35.8361ZM39.3443 90.584C39.3443 89.688 39.5256 88.904 39.8883 88.232C40.2509 87.5493 40.7469 87.0213 41.3763 86.648C42.0163 86.2747 42.7256 86.088 43.5043 86.088C44.2723 86.088 44.9389 86.2533 45.5043 86.584C46.0696 86.9147 46.4909 87.3307 46.7683 87.832V86.232H48.2403V95H46.7683V93.368C46.4803 93.88 46.0483 94.3067 45.4723 94.648C44.9069 94.9787 44.2456 95.144 43.4883 95.144C42.7096 95.144 42.0056 94.952 41.3763 94.568C40.7469 94.184 40.2509 93.6453 39.8883 92.952C39.5256 92.2587 39.3443 91.4693 39.3443 90.584ZM46.7683 90.6C46.7683 89.9387 46.6349 89.3627 46.3683 88.872C46.1016 88.3813 45.7389 88.008 45.2803 87.752C44.8323 87.4853 44.3363 87.352 43.7923 87.352C43.2483 87.352 42.7523 87.48 42.3043 87.736C41.8563 87.992 41.4989 88.3653 41.2323 88.856C40.9656 89.3467 40.8323 89.9227 40.8323 90.584C40.8323 91.256 40.9656 91.8427 41.2323 92.344C41.4989 92.8347 41.8563 93.2133 42.3043 93.48C42.7523 93.736 43.2483 93.864 43.7923 93.864C44.3363 93.864 44.8323 93.736 45.2803 93.48C45.7389 93.2133 46.1016 92.8347 46.3683 92.344C46.6349 91.8427 46.7683 91.2613 46.7683 90.6ZM50.1568 90.6C50.1568 89.6933 50.3381 88.904 50.7008 88.232C51.0634 87.5493 51.5648 87.0213 52.2048 86.648C52.8554 86.2747 53.5968 86.088 54.4288 86.088C55.5061 86.088 56.3914 86.3493 57.0848 86.872C57.7888 87.3947 58.2528 88.12 58.4768 89.048H56.9088C56.7594 88.5147 56.4661 88.0933 56.0288 87.784C55.6021 87.4747 55.0688 87.32 54.4288 87.32C53.5968 87.32 52.9248 87.608 52.4128 88.184C51.9008 88.7493 51.6448 89.5547 51.6448 90.6C51.6448 91.656 51.9008 92.472 52.4128 93.048C52.9248 93.624 53.5968 93.912 54.4288 93.912C55.0688 93.912 55.6021 93.7627 56.0288 93.464C56.4554 93.1653 56.7488 92.7387 56.9088 92.184H58.4768C58.2421 93.08 57.7728 93.8 57.0688 94.344C56.3648 94.8773 55.4848 95.144 54.4288 95.144C53.5968 95.144 52.8554 94.9573 52.2048 94.584C51.5648 94.2107 51.0634 93.6827 50.7008 93C50.3381 92.3173 50.1568 91.5173 50.1568 90.6ZM62.1955 87.432V92.6C62.1955 93.0267 62.2862 93.3307 62.4675 93.512C62.6488 93.6827 62.9635 93.768 63.4115 93.768H64.4835V95H63.1715C62.3608 95 61.7528 94.8133 61.3475 94.44C60.9422 94.0667 60.7395 93.4533 60.7395 92.6V87.432H59.6035V86.232H60.7395V84.024H62.1955V86.232H64.4835V87.432H62.1955ZM71.9373 83.848V90.904C71.9373 91.896 72.1773 92.632 72.6573 93.112C73.1479 93.592 73.8253 93.832 74.6893 93.832C75.5426 93.832 76.2093 93.592 76.6893 93.112C77.1799 92.632 77.4253 91.896 77.4253 90.904V83.848H78.8813V90.888C78.8813 91.816 78.6946 92.6 78.3212 93.24C77.9479 93.8693 77.4413 94.3387 76.8013 94.648C76.1719 94.9573 75.4626 95.112 74.6733 95.112C73.8839 95.112 73.1693 94.9573 72.5293 94.648C71.8999 94.3387 71.3986 93.8693 71.0253 93.24C70.6626 92.6 70.4813 91.816 70.4813 90.888V83.848H71.9373ZM84.4141 95.144C83.7421 95.144 83.1395 95.032 82.6061 94.808C82.0728 94.5733 81.6515 94.2533 81.3421 93.848C81.0328 93.432 80.8621 92.9573 80.8301 92.424H82.3341C82.3768 92.8613 82.5795 93.2187 82.9421 93.496C83.3155 93.7733 83.8008 93.912 84.3981 93.912C84.9528 93.912 85.3901 93.7893 85.7101 93.544C86.0301 93.2987 86.1901 92.9893 86.1901 92.616C86.1901 92.232 86.0195 91.9493 85.6781 91.768C85.3368 91.576 84.8088 91.3893 84.0941 91.208C83.4435 91.0373 82.9101 90.8667 82.4941 90.696C82.0888 90.5147 81.7368 90.2533 81.4381 89.912C81.1501 89.56 81.0061 89.1013 81.0061 88.536C81.0061 88.088 81.1395 87.6773 81.4061 87.304C81.6728 86.9307 82.0515 86.6373 82.5421 86.424C83.0328 86.2 83.5928 86.088 84.2221 86.088C85.1928 86.088 85.9768 86.3333 86.5741 86.824C87.1715 87.3147 87.4915 87.9867 87.5341 88.84H86.0781C86.0461 88.3813 85.8595 88.0133 85.5181 87.736C85.1875 87.4587 84.7395 87.32 84.1741 87.32C83.6515 87.32 83.2355 87.432 82.9261 87.656C82.6168 87.88 82.4621 88.1733 82.4621 88.536C82.4621 88.824 82.5528 89.064 82.7341 89.256C82.9261 89.4373 83.1608 89.5867 83.4381 89.704C83.7261 89.8107 84.1208 89.9333 84.6221 90.072C85.2515 90.2427 85.7635 90.4133 86.1581 90.584C86.5528 90.744 86.8888 90.9893 87.1661 91.32C87.4541 91.6507 87.6035 92.0827 87.6141 92.616C87.6141 93.096 87.4808 93.528 87.2141 93.912C86.9475 94.296 86.5688 94.6 86.0781 94.824C85.5981 95.0373 85.0435 95.144 84.4141 95.144Z" fill="white"/>
</g>
<defs>
<clipPath id="clip0_50_1843">
<rect width="160" height="102" fill="white"/>
</clipPath>
</defs>
</svg>
