<svg width="357" height="40" viewBox="0 0 357 40" fill="none" xmlns="http://www.w3.org/2000/svg">
<rect width="283" height="40" rx="10" fill="#1B1A21"/>
<path d="M26.26 15.27L23.04 21.472V25H21.444V21.472L18.21 15.27H19.988L22.242 20.044L24.496 15.27H26.26ZM30.8726 25.126C30.1446 25.126 29.4866 24.9627 28.8986 24.636C28.3106 24.3 27.8486 23.8333 27.5126 23.236C27.1766 22.6293 27.0086 21.9293 27.0086 21.136C27.0086 20.352 27.1812 19.6567 27.5266 19.05C27.8719 18.4433 28.3432 17.9767 28.9406 17.65C29.5379 17.3233 30.2052 17.16 30.9426 17.16C31.6799 17.16 32.3472 17.3233 32.9446 17.65C33.5419 17.9767 34.0132 18.4433 34.3586 19.05C34.7039 19.6567 34.8766 20.352 34.8766 21.136C34.8766 21.92 34.6992 22.6153 34.3446 23.222C33.9899 23.8287 33.5046 24.3 32.8886 24.636C32.2819 24.9627 31.6099 25.126 30.8726 25.126ZM30.8726 23.74C31.2832 23.74 31.6659 23.642 32.0206 23.446C32.3846 23.25 32.6786 22.956 32.9026 22.564C33.1266 22.172 33.2386 21.696 33.2386 21.136C33.2386 20.576 33.1312 20.1047 32.9166 19.722C32.7019 19.33 32.4172 19.036 32.0626 18.84C31.7079 18.644 31.3252 18.546 30.9146 18.546C30.5039 18.546 30.1212 18.644 29.7666 18.84C29.4212 19.036 29.1459 19.33 28.9406 19.722C28.7352 20.1047 28.6326 20.576 28.6326 21.136C28.6326 21.9667 28.8426 22.6107 29.2626 23.068C29.6919 23.516 30.2286 23.74 30.8726 23.74ZM43.4403 17.286V25H41.8443V24.09C41.5923 24.4073 41.261 24.6593 40.8503 24.846C40.449 25.0233 40.0196 25.112 39.5623 25.112C38.9556 25.112 38.4096 24.986 37.9243 24.734C37.4483 24.482 37.0703 24.1087 36.7903 23.614C36.5196 23.1193 36.3843 22.522 36.3843 21.822V17.286H37.9663V21.584C37.9663 22.2747 38.139 22.8067 38.4843 23.18C38.8296 23.544 39.301 23.726 39.8983 23.726C40.4956 23.726 40.967 23.544 41.3123 23.18C41.667 22.8067 41.8443 22.2747 41.8443 21.584V17.286H43.4403ZM47.1421 18.406C47.3754 18.014 47.6834 17.7107 48.0661 17.496C48.4581 17.272 48.9201 17.16 49.4521 17.16V18.812H49.0461C48.4208 18.812 47.9448 18.9707 47.6181 19.288C47.3008 19.6053 47.1421 20.156 47.1421 20.94V25H45.5461V17.286H47.1421V18.406ZM56.1519 16.558V19.414H59.5119V20.716H56.1519V23.698H59.9319V25H54.5559V15.256H59.9319V16.558H56.1519ZM71.2357 17.16C71.8423 17.16 72.3837 17.286 72.8597 17.538C73.345 17.79 73.723 18.1633 73.9937 18.658C74.2737 19.1527 74.4137 19.75 74.4137 20.45V25H72.8317V20.688C72.8317 19.9973 72.659 19.47 72.3137 19.106C71.9683 18.7327 71.497 18.546 70.8997 18.546C70.3023 18.546 69.8263 18.7327 69.4717 19.106C69.1263 19.47 68.9537 19.9973 68.9537 20.688V25H67.3717V20.688C67.3717 19.9973 67.199 19.47 66.8537 19.106C66.5083 18.7327 66.037 18.546 65.4397 18.546C64.8423 18.546 64.3663 18.7327 64.0117 19.106C63.6663 19.47 63.4937 19.9973 63.4937 20.688V25H61.8977V17.286H63.4937V18.168C63.755 17.8507 64.0863 17.6033 64.4877 17.426C64.889 17.2487 65.3183 17.16 65.7757 17.16C66.3917 17.16 66.9423 17.2907 67.4277 17.552C67.913 17.8133 68.2863 18.1913 68.5477 18.686C68.781 18.2193 69.145 17.8507 69.6397 17.58C70.1343 17.3 70.6663 17.16 71.2357 17.16ZM75.9125 21.108C75.9125 20.3333 76.0712 19.6473 76.3885 19.05C76.7152 18.4527 77.1539 17.9907 77.7045 17.664C78.2645 17.328 78.8805 17.16 79.5525 17.16C80.1592 17.16 80.6865 17.2813 81.1345 17.524C81.5919 17.7573 81.9559 18.0513 82.2265 18.406V17.286H83.8365V25H82.2265V23.852C81.9559 24.216 81.5872 24.5193 81.1205 24.762C80.6539 25.0047 80.1219 25.126 79.5245 25.126C78.8619 25.126 78.2552 24.958 77.7045 24.622C77.1539 24.2767 76.7152 23.8007 76.3885 23.194C76.0712 22.578 75.9125 21.8827 75.9125 21.108ZM82.2265 21.136C82.2265 20.604 82.1145 20.142 81.8905 19.75C81.6759 19.358 81.3912 19.0593 81.0365 18.854C80.6819 18.6487 80.2992 18.546 79.8885 18.546C79.4779 18.546 79.0952 18.6487 78.7405 18.854C78.3859 19.05 78.0965 19.344 77.8725 19.736C77.6579 20.1187 77.5505 20.576 77.5505 21.108C77.5505 21.64 77.6579 22.1067 77.8725 22.508C78.0965 22.9093 78.3859 23.2173 78.7405 23.432C79.1045 23.6373 79.4872 23.74 79.8885 23.74C80.2992 23.74 80.6819 23.6373 81.0365 23.432C81.3912 23.2267 81.6759 22.928 81.8905 22.536C82.1145 22.1347 82.2265 21.668 82.2265 21.136ZM86.7448 16.264C86.4555 16.264 86.2128 16.166 86.0168 15.97C85.8208 15.774 85.7228 15.5313 85.7228 15.242C85.7228 14.9527 85.8208 14.71 86.0168 14.514C86.2128 14.318 86.4555 14.22 86.7448 14.22C87.0248 14.22 87.2628 14.318 87.4588 14.514C87.6548 14.71 87.7528 14.9527 87.7528 15.242C87.7528 15.5313 87.6548 15.774 87.4588 15.97C87.2628 16.166 87.0248 16.264 86.7448 16.264ZM87.5288 17.286V25H85.9328V17.286H87.5288ZM91.2202 14.64V25H89.6242V14.64H91.2202Z" fill="white"/>
<rect x="239" width="118" height="40" rx="10" fill="url(#paint0_linear_50_1837)"/>
<path d="M270.136 14.714H264.466V24.5H270.136V22.904H266.426V20.314H269.716V18.76H266.426V16.31H270.136V14.714ZM282.767 24.5H284.727V19.95C284.727 17.808 283.411 16.632 281.549 16.632C280.415 16.632 279.393 17.234 278.889 18.116C278.357 17.15 277.363 16.632 276.159 16.632C275.193 16.632 274.367 17.038 273.877 17.682V16.744H271.917V24.5H273.877V20.216C273.877 18.984 274.563 18.34 275.627 18.34C276.663 18.34 277.349 18.984 277.349 20.216V24.5H279.309V20.216C279.309 18.984 279.995 18.34 281.045 18.34C282.081 18.34 282.767 18.984 282.767 20.216V24.5ZM286.083 20.594C286.083 23.016 287.651 24.626 289.611 24.626C290.843 24.626 291.725 24.038 292.187 23.366V24.5H294.161V16.744H292.187V17.85C291.725 17.206 290.871 16.618 289.625 16.618C287.651 16.618 286.083 18.172 286.083 20.594ZM292.187 20.622C292.187 22.092 291.207 22.904 290.129 22.904C289.079 22.904 288.085 22.064 288.085 20.594C288.085 19.124 289.079 18.34 290.129 18.34C291.207 18.34 292.187 19.152 292.187 20.622ZM296.075 24.5H298.035V16.744H296.075V24.5ZM297.069 15.82C297.755 15.82 298.273 15.316 298.273 14.672C298.273 14.028 297.755 13.524 297.069 13.524C296.369 13.524 295.865 14.028 295.865 14.672C295.865 15.316 296.369 15.82 297.069 15.82ZM299.972 24.5H301.932V14.14H299.972V24.5ZM307.204 24.5H309.164V18.144L311.796 24.5H313.28L315.898 18.144V24.5H317.858V14.728H315.646L312.538 21.994L309.43 14.728H307.204V24.5ZM323.128 18.228C324.136 18.228 324.948 18.872 324.976 19.894H321.294C321.448 18.83 322.19 18.228 323.128 18.228ZM326.81 22.064H324.696C324.444 22.582 323.982 23.002 323.142 23.002C322.162 23.002 321.378 22.358 321.28 21.21H326.95C326.992 20.958 327.006 20.706 327.006 20.454C327.006 18.144 325.424 16.618 323.184 16.618C320.888 16.618 319.292 18.172 319.292 20.622C319.292 23.058 320.93 24.626 323.184 24.626C325.102 24.626 326.39 23.492 326.81 22.064ZM329.095 21.322H330.747L330.971 14.56H328.857L329.095 21.322ZM331.153 23.45C331.153 22.806 330.649 22.302 329.963 22.302C329.249 22.302 328.745 22.806 328.745 23.45C328.745 24.094 329.249 24.598 329.963 24.598C330.649 24.598 331.153 24.094 331.153 23.45Z" fill="white"/>
<defs>
<linearGradient id="paint0_linear_50_1837" x1="277.618" y1="6.98458e-07" x2="354.383" y2="44.5125" gradientUnits="userSpaceOnUse">
<stop stop-color="#EB1484"/>
<stop offset="0.9999" stop-color="#C91CC3"/>
<stop offset="1" stop-color="#C81CC5"/>
<stop offset="1" stop-color="#C81CC5"/>
</linearGradient>
</defs>
</svg>
