<svg width="58" height="17" viewBox="0 0 58 17" fill="none" xmlns="http://www.w3.org/2000/svg">
<path d="M7.084 1.316H0.604V12.5H7.084V10.676H2.844V7.716H6.604V5.94H2.844V3.14H7.084V1.316ZM14.0156 12.5H16.5436L13.5996 8.052L16.5116 3.636H14.1116L12.4796 6.372L10.6716 3.636H8.14363L11.0716 8.052L8.17563 12.5H10.5756L12.1916 9.748L14.0156 12.5ZM20.0003 4.916V3.636H17.7603V16.724H20.0003V11.236C20.5443 11.956 21.5363 12.644 22.9283 12.644C25.2003 12.644 26.9763 10.804 26.9763 8.036C26.9763 5.268 25.2003 3.492 22.9283 3.492C21.5523 3.492 20.5283 4.164 20.0003 4.916ZM24.6883 8.036C24.6883 9.716 23.5523 10.676 22.3363 10.676C21.1363 10.676 20.0003 9.748 20.0003 8.068C20.0003 6.388 21.1363 5.46 22.3363 5.46C23.5523 5.46 24.6883 6.356 24.6883 8.036ZM28.604 12.5H30.844V0.66H28.604V12.5ZM41.6171 8.068C41.6171 5.268 39.6171 3.492 37.0571 3.492C34.4971 3.492 32.4971 5.268 32.4971 8.068C32.4971 10.852 34.4331 12.644 36.9931 12.644C39.5691 12.644 41.6171 10.852 41.6171 8.068ZM34.7691 8.068C34.7691 6.292 35.8411 5.444 37.0251 5.444C38.2091 5.444 39.3131 6.292 39.3131 8.068C39.3131 9.828 38.1771 10.692 36.9931 10.692C35.7931 10.692 34.7691 9.828 34.7691 8.068ZM45.5003 8.084C45.5003 6.372 46.3003 5.86 47.6283 5.86H48.2203V3.508C46.9883 3.508 46.0603 4.1 45.5003 5.012V3.636H43.2603V12.5H45.5003V8.084ZM53.537 5.332C54.689 5.332 55.617 6.068 55.649 7.236H51.441C51.617 6.02 52.465 5.332 53.537 5.332ZM57.745 9.716H55.329C55.041 10.308 54.513 10.788 53.553 10.788C52.433 10.788 51.537 10.052 51.425 8.74H57.905C57.953 8.452 57.969 8.164 57.969 7.876C57.969 5.236 56.161 3.492 53.601 3.492C50.977 3.492 49.153 5.268 49.153 8.068C49.153 10.852 51.025 12.644 53.601 12.644C55.793 12.644 57.265 11.348 57.745 9.716Z" fill="white"/>
</svg>
