<svg width="103" height="21" viewBox="0 0 103 21" fill="none" xmlns="http://www.w3.org/2000/svg">
<path d="M0.7 8C0.7 12.18 3.76 15.12 7.78 15.12C10.88 15.12 13.4 13.48 14.34 10.6H11.12C10.46 11.96 9.26 12.62 7.76 12.62C5.32 12.62 3.58 10.82 3.58 8C3.58 5.16 5.32 3.38 7.76 3.38C9.26 3.38 10.46 4.04 11.12 5.38H14.34C13.4 2.52 10.88 0.86 7.78 0.86C3.76 0.86 0.7 3.82 0.7 8ZM19.5316 9.48C19.5316 7.34 20.5316 6.7 22.1916 6.7H22.9316V3.76C21.3916 3.76 20.2316 4.5 19.5316 5.64V3.92H16.7316V15H19.5316V9.48ZM29.5375 11.66L26.6775 3.92H23.5375L27.9775 14.72L25.5775 20.24H28.5575L35.4175 3.92H32.4375L29.5375 11.66ZM39.7269 5.52V3.92H36.9269V20.28H39.7269V13.42C40.4069 14.32 41.6469 15.18 43.3869 15.18C46.2269 15.18 48.4469 12.88 48.4469 9.42C48.4469 5.96 46.2269 3.74 43.3869 3.74C41.6669 3.74 40.3869 4.58 39.7269 5.52ZM45.5869 9.42C45.5869 11.52 44.1669 12.72 42.6469 12.72C41.1469 12.72 39.7269 11.56 39.7269 9.46C39.7269 7.36 41.1469 6.2 42.6469 6.2C44.1669 6.2 45.5869 7.32 45.5869 9.42ZM50.9216 11.56C50.9216 14.1 52.3416 15 54.4616 15H56.2216V12.64H54.9216C54.0416 12.64 53.7416 12.32 53.7416 11.58V6.22H56.2216V3.92H53.7416V1.18H50.9216V3.92H49.6016V6.22H50.9216V11.56ZM68.9355 9.46C68.9355 5.96 66.4355 3.74 63.2355 3.74C60.0355 3.74 57.5355 5.96 57.5355 9.46C57.5355 12.94 59.9555 15.18 63.1555 15.18C66.3755 15.18 68.9355 12.94 68.9355 9.46ZM60.3755 9.46C60.3755 7.24 61.7155 6.18 63.1955 6.18C64.6755 6.18 66.0555 7.24 66.0555 9.46C66.0555 11.66 64.6355 12.74 63.1555 12.74C61.6555 12.74 60.3755 11.66 60.3755 9.46ZM78.8694 15H82.4094L76.4894 7.96L82.2494 1.04H78.8694L73.7894 7.3V1.04H70.9894V15H73.7894V8.78L78.8694 15ZM89.0111 6.04C90.4511 6.04 91.6111 6.96 91.6511 8.42H86.3911C86.6111 6.9 87.6711 6.04 89.0111 6.04ZM94.2711 11.52H91.2511C90.8911 12.26 90.2311 12.86 89.0311 12.86C87.6311 12.86 86.5111 11.94 86.3711 10.3H94.4711C94.5311 9.94 94.5511 9.58 94.5511 9.22C94.5511 5.92 92.2911 3.74 89.0911 3.74C85.8111 3.74 83.5311 5.96 83.5311 9.46C83.5311 12.94 85.8711 15.18 89.0911 15.18C91.8311 15.18 93.6711 13.56 94.2711 11.52ZM97.0348 11.56C97.0348 14.1 98.4548 15 100.575 15H102.335V12.64H101.035C100.155 12.64 99.8548 12.32 99.8548 11.58V6.22H102.335V3.92H99.8548V1.18H97.0348V3.92H95.7148V6.22H97.0348V11.56Z" fill="white"/>
</svg>
