<svg width="981" height="25" viewBox="0 0 981 25" fill="none" xmlns="http://www.w3.org/2000/svg">
<path d="M0.56 12.4C0.56 15.744 3.008 18.096 6.224 18.096C8.704 18.096 10.72 16.784 11.472 14.48H8.896C8.368 15.568 7.408 16.096 6.208 16.096C4.256 16.096 2.864 14.656 2.864 12.4C2.864 10.128 4.256 8.704 6.208 8.704C7.408 8.704 8.368 9.232 8.896 10.304H11.472C10.72 8.016 8.704 6.688 6.224 6.688C3.008 6.688 0.56 9.056 0.56 12.4ZM15.6253 13.584C15.6253 11.872 16.4253 11.36 17.7533 11.36H18.3453V9.008C17.1133 9.008 16.1853 9.6 15.6253 10.512V9.136H13.3853V18H15.6253V13.584ZM22.094 10.416V9.136H19.854V22.224H22.094V16.736C22.638 17.456 23.63 18.144 25.022 18.144C27.294 18.144 29.07 16.304 29.07 13.536C29.07 10.768 27.294 8.992 25.022 8.992C23.646 8.992 22.622 9.664 22.094 10.416ZM26.782 13.536C26.782 15.216 25.646 16.176 24.43 16.176C23.23 16.176 22.094 15.248 22.094 13.568C22.094 11.888 23.23 10.96 24.43 10.96C25.646 10.96 26.782 11.856 26.782 13.536ZM34.4738 15.328L32.1858 9.136H29.6738L33.2258 17.776L31.3058 22.192H33.6898L39.1778 9.136H36.7938L34.4738 15.328ZM40.7373 15.248C40.7373 17.28 41.8733 18 43.5693 18H44.9773V16.112H43.9373C43.2333 16.112 42.9933 15.856 42.9933 15.264V10.976H44.9773V9.136H42.9933V6.944H40.7373V9.136H39.6813V10.976H40.7373V15.248ZM55.1484 13.568C55.1484 10.768 53.1484 8.992 50.5884 8.992C48.0284 8.992 46.0284 10.768 46.0284 13.568C46.0284 16.352 47.9644 18.144 50.5244 18.144C53.1004 18.144 55.1484 16.352 55.1484 13.568ZM48.3004 13.568C48.3004 11.792 49.3724 10.944 50.5564 10.944C51.7404 10.944 52.8444 11.792 52.8444 13.568C52.8444 15.328 51.7084 16.192 50.5244 16.192C49.3244 16.192 48.3004 15.328 48.3004 13.568ZM63.0955 18H65.9275L61.1915 12.368L65.7995 6.832H63.0955L59.0315 11.84V6.832H56.7915V18H59.0315V13.024L63.0955 18ZM71.2089 10.832C72.3609 10.832 73.2889 11.568 73.3209 12.736H69.1129C69.2889 11.52 70.1369 10.832 71.2089 10.832ZM75.4169 15.216H73.0009C72.7129 15.808 72.1849 16.288 71.2249 16.288C70.1049 16.288 69.2089 15.552 69.0969 14.24H75.5769C75.6249 13.952 75.6409 13.664 75.6409 13.376C75.6409 10.736 73.8329 8.992 71.2729 8.992C68.6489 8.992 66.8249 10.768 66.8249 13.568C66.8249 16.352 68.6969 18.144 71.2729 18.144C73.4649 18.144 74.9369 16.848 75.4169 15.216ZM77.6279 15.248C77.6279 17.28 78.7639 18 80.4599 18H81.8679V16.112H80.8279C80.1239 16.112 79.8839 15.856 79.8839 15.264V10.976H81.8679V9.136H79.8839V6.944H77.6279V9.136H76.5719V10.976H77.6279V15.248ZM82.567 20.304H84.023L86.007 15.536H83.639L82.567 20.304ZM91.3696 18H93.6096V6.832H91.3696V18ZM102.031 18H104.271V12.8C104.271 10.352 102.799 9.008 100.735 9.008C99.5988 9.008 98.6388 9.488 98.0628 10.24V9.136H95.8228V18H98.0628V13.104C98.0628 11.68 98.8468 10.912 100.063 10.912C101.247 10.912 102.031 11.68 102.031 13.104V18ZM105.825 13.568C105.825 16.352 107.649 18.144 110.209 18.144C112.417 18.144 113.905 16.896 114.385 15.008H111.969C111.697 15.808 111.121 16.224 110.193 16.224C108.945 16.224 108.113 15.296 108.113 13.568C108.113 11.84 108.945 10.896 110.193 10.896C111.121 10.896 111.713 11.376 111.969 12.128H114.385C113.905 10.144 112.417 8.992 110.209 8.992C107.649 8.992 105.825 10.784 105.825 13.568ZM118.378 16.8C118.378 16.064 117.802 15.488 117.018 15.488C116.202 15.488 115.626 16.064 115.626 16.8C115.626 17.536 116.202 18.112 117.018 18.112C117.802 18.112 118.378 17.536 118.378 16.8ZM131.579 18H133.947L129.931 6.816H127.323L123.307 18H125.659L126.395 15.872H130.843L131.579 18ZM130.235 14.08H127.003L128.619 9.408L130.235 14.08ZM135.448 18H137.688V6.16H135.448V18ZM139.901 18H142.141V6.16H139.901V18ZM154.087 10.304C154.087 11.312 153.527 11.968 152.279 11.968H150.407V8.688H152.279C153.527 8.688 154.087 9.312 154.087 10.304ZM148.167 6.832V18H150.407V13.648H151.463L153.927 18H156.519L153.847 13.472C155.639 12.992 156.391 11.616 156.391 10.256C156.391 8.384 155.047 6.832 152.359 6.832H148.167ZM158.417 18H160.657V9.136H158.417V18ZM159.553 8.08C160.337 8.08 160.929 7.504 160.929 6.768C160.929 6.032 160.337 5.456 159.553 5.456C158.753 5.456 158.177 6.032 158.177 6.768C158.177 7.504 158.753 8.08 159.553 8.08ZM162.294 13.536C162.294 16.304 164.086 18.144 166.342 18.144C167.734 18.144 168.742 17.456 169.27 16.688V18.064C169.27 19.712 168.31 20.416 167.078 20.416C165.958 20.416 165.126 19.888 164.902 19.088H162.678C162.902 21.12 164.646 22.368 167.142 22.368C170.054 22.368 171.526 20.464 171.526 18.064V9.136H169.27V10.4C168.742 9.632 167.734 8.992 166.342 8.992C164.086 8.992 162.294 10.768 162.294 13.536ZM169.27 13.568C169.27 15.248 168.15 16.176 166.918 16.176C165.718 16.176 164.582 15.216 164.582 13.536C164.582 11.856 165.718 10.96 166.918 10.96C168.15 10.96 169.27 11.888 169.27 13.568ZM173.713 18H175.953V13.104C175.953 11.68 176.737 10.912 177.953 10.912C179.137 10.912 179.921 11.68 179.921 13.104V18H182.161V12.8C182.161 10.352 180.705 9.008 178.705 9.008C177.521 9.008 176.529 9.488 175.953 10.24V6.16H173.713V18ZM184.644 15.248C184.644 17.28 185.78 18 187.476 18H188.884V16.112H187.844C187.14 16.112 186.9 15.856 186.9 15.264V10.976H188.884V9.136H186.9V6.944H184.644V9.136H183.588V10.976H184.644V15.248ZM197.375 15.472C197.311 12.224 192.399 13.232 192.399 11.616C192.399 11.104 192.831 10.768 193.663 10.768C194.543 10.768 195.087 11.232 195.151 11.92H197.295C197.167 10.16 195.871 8.992 193.727 8.992C191.535 8.992 190.223 10.176 190.223 11.648C190.223 14.896 195.231 13.888 195.231 15.472C195.231 15.984 194.751 16.384 193.871 16.384C192.975 16.384 192.351 15.872 192.271 15.2H190.015C190.111 16.848 191.663 18.144 193.887 18.144C196.047 18.144 197.375 16.992 197.375 15.472ZM208.946 10.304C208.946 11.312 208.386 11.968 207.138 11.968H205.266V8.688H207.138C208.386 8.688 208.946 9.312 208.946 10.304ZM203.026 6.832V18H205.266V13.648H206.322L208.786 18H211.378L208.706 13.472C210.498 12.992 211.25 11.616 211.25 10.256C211.25 8.384 209.906 6.832 207.218 6.832H203.026ZM217.084 10.832C218.236 10.832 219.164 11.568 219.196 12.736H214.988C215.164 11.52 216.012 10.832 217.084 10.832ZM221.292 15.216H218.876C218.588 15.808 218.06 16.288 217.1 16.288C215.98 16.288 215.084 15.552 214.972 14.24H221.452C221.5 13.952 221.516 13.664 221.516 13.376C221.516 10.736 219.708 8.992 217.148 8.992C214.524 8.992 212.7 10.768 212.7 13.568C212.7 16.352 214.572 18.144 217.148 18.144C219.34 18.144 220.812 16.848 221.292 15.216ZM230.031 15.472C229.967 12.224 225.055 13.232 225.055 11.616C225.055 11.104 225.487 10.768 226.319 10.768C227.199 10.768 227.743 11.232 227.807 11.92H229.951C229.823 10.16 228.527 8.992 226.383 8.992C224.191 8.992 222.879 10.176 222.879 11.648C222.879 14.896 227.887 13.888 227.887 15.472C227.887 15.984 227.407 16.384 226.527 16.384C225.631 16.384 225.007 15.872 224.927 15.2H222.671C222.767 16.848 224.319 18.144 226.543 18.144C228.703 18.144 230.031 16.992 230.031 15.472ZM235.678 10.832C236.83 10.832 237.758 11.568 237.79 12.736H233.582C233.758 11.52 234.606 10.832 235.678 10.832ZM239.886 15.216H237.47C237.182 15.808 236.654 16.288 235.694 16.288C234.574 16.288 233.678 15.552 233.566 14.24H240.046C240.094 13.952 240.11 13.664 240.11 13.376C240.11 10.736 238.302 8.992 235.742 8.992C233.118 8.992 231.294 10.768 231.294 13.568C231.294 16.352 233.166 18.144 235.742 18.144C237.934 18.144 239.406 16.848 239.886 15.216ZM243.985 13.584C243.985 11.872 244.785 11.36 246.113 11.36H246.705V9.008C245.473 9.008 244.545 9.6 243.985 10.512V9.136H241.745V18H243.985V13.584ZM247.269 9.136L250.533 18H253.253L256.533 9.136H254.149L251.909 15.936L249.669 9.136H247.269ZM261.6 10.832C262.752 10.832 263.68 11.568 263.712 12.736H259.504C259.68 11.52 260.528 10.832 261.6 10.832ZM265.808 15.216H263.392C263.104 15.808 262.576 16.288 261.616 16.288C260.496 16.288 259.6 15.552 259.488 14.24H265.968C266.016 13.952 266.032 13.664 266.032 13.376C266.032 10.736 264.224 8.992 261.664 8.992C259.039 8.992 257.215 10.768 257.215 13.568C257.215 16.352 259.088 18.144 261.664 18.144C263.856 18.144 265.328 16.848 265.808 15.216ZM267.09 13.536C267.09 16.304 268.883 18.144 271.139 18.144C272.531 18.144 273.523 17.504 274.051 16.688V18H276.323V6.16H274.051V10.368C273.443 9.536 272.323 8.992 271.155 8.992C268.883 8.992 267.09 10.768 267.09 13.536ZM274.067 13.568C274.067 15.248 272.947 16.176 271.715 16.176C270.515 16.176 269.379 15.216 269.379 13.536C269.379 11.856 270.515 10.96 271.715 10.96C272.947 10.96 274.067 11.888 274.067 13.568Z" fill="white"/>
<g clip-path="url(#clip0_50_1855)">
<path d="M845.976 7.35007C845.917 6.02172 845.702 5.1085 845.394 4.31717C845.077 3.4772 844.589 2.72518 843.949 2.10002C843.324 1.46513 842.567 0.971793 841.736 0.659308C840.941 0.351593 840.032 0.136784 838.704 0.0782166C837.365 0.0146894 836.941 0 833.546 0C830.152 0 829.727 0.0146894 828.394 0.0732565C827.066 0.131824 826.152 0.346824 825.361 0.654348C824.521 0.971793 823.769 1.46017 823.144 2.10002C822.509 2.72518 822.016 3.48216 821.703 4.3124C821.396 5.1085 821.181 6.01676 821.122 7.34511C821.059 8.68338 821.044 9.10822 821.044 12.5024C821.044 15.8967 821.059 16.3215 821.117 17.6548C821.176 18.9832 821.391 19.8964 821.698 20.6877C822.016 21.5277 822.509 22.2797 823.144 22.9049C823.769 23.5398 824.526 24.0331 825.356 24.3456C826.152 24.6533 827.061 24.8681 828.389 24.9267C829.722 24.9854 830.147 24.9999 833.542 24.9999C836.936 24.9999 837.361 24.9854 838.694 24.9267C840.022 24.8681 840.936 24.6533 841.727 24.3456C843.407 23.696 844.735 22.3677 845.385 20.6877C845.692 19.8916 845.907 18.9832 845.966 17.6548C846.024 16.3215 846.039 15.8967 846.039 12.5024C846.039 9.10822 846.034 8.68338 845.976 7.35007ZM843.724 17.5571C843.67 18.7781 843.465 19.4374 843.294 19.8769C842.874 20.966 842.01 21.8304 840.921 22.2505C840.481 22.4214 839.817 22.6265 838.601 22.6801C837.282 22.7389 836.887 22.7534 833.551 22.7534C830.216 22.7534 829.815 22.7389 828.501 22.6801C827.28 22.6265 826.621 22.4214 826.182 22.2505C825.64 22.0502 825.146 21.7328 824.746 21.3176C824.331 20.9123 824.013 20.4239 823.813 19.8819C823.642 19.4424 823.437 18.7781 823.383 17.5621C823.325 16.2435 823.31 15.8478 823.31 12.5122C823.31 9.17652 823.325 8.77609 823.383 7.46243C823.437 6.24149 823.642 5.58218 823.813 5.14264C824.013 4.60047 824.331 4.10732 824.751 3.7067C825.156 3.29158 825.644 2.97414 826.187 2.77402C826.626 2.60309 827.29 2.39801 828.506 2.34421C829.825 2.28564 830.221 2.27095 833.556 2.27095C836.897 2.27095 837.292 2.28564 838.606 2.34421C839.827 2.39801 840.486 2.60309 840.926 2.77402C841.468 2.97414 841.961 3.29158 842.362 3.7067C842.777 4.11209 843.094 4.60047 843.294 5.14264C843.465 5.58218 843.67 6.24626 843.724 7.46243C843.783 8.78105 843.798 9.17652 843.798 12.5122C843.798 15.8478 843.783 16.2385 843.724 17.5571Z" fill="white"/>
<path d="M833.546 6.08032C830.001 6.08032 827.124 8.95679 827.124 12.5025C827.124 16.0482 830.001 18.9246 833.546 18.9246C837.092 18.9246 839.969 16.0482 839.969 12.5025C839.969 8.95679 837.092 6.08032 833.546 6.08032ZM833.546 16.6684C831.246 16.6684 829.381 14.8028 829.381 12.5025C829.381 10.2021 831.246 8.33659 833.546 8.33659C835.847 8.33659 837.712 10.2021 837.712 12.5025C837.712 14.8028 835.847 16.6684 833.546 16.6684Z" fill="white"/>
<path d="M841.722 5.82643C841.722 6.65438 841.051 7.32571 840.222 7.32571C839.394 7.32571 838.723 6.65438 838.723 5.82643C838.723 4.99829 839.394 4.32715 840.222 4.32715C841.051 4.32715 841.722 4.99829 841.722 5.82643Z" fill="white"/>
</g>
<g clip-path="url(#clip1_50_1855)">
<path d="M891 4.74844C890.07 5.15625 889.08 5.42656 888.047 5.55781C889.109 4.92344 889.92 3.92656 890.302 2.725C889.311 3.31562 888.217 3.73281 887.052 3.96563C886.111 2.96406 884.77 2.34375 883.308 2.34375C880.47 2.34375 878.186 4.64688 878.186 7.47031C878.186 7.87656 878.22 8.26719 878.305 8.63906C874.044 8.43125 870.273 6.38906 867.741 3.27813C867.298 4.04531 867.039 4.92344 867.039 5.86875C867.039 7.64375 867.953 9.21719 869.316 10.1281C868.492 10.1125 867.684 9.87344 867 9.49688C867 9.5125 867 9.53281 867 9.55312C867 12.0437 868.777 14.1125 871.106 14.5891C870.689 14.7031 870.234 14.7578 869.763 14.7578C869.434 14.7578 869.103 14.7391 868.792 14.6703C869.456 16.7 871.341 18.1922 873.581 18.2406C871.838 19.6047 869.623 20.4266 867.227 20.4266C866.806 20.4266 866.403 20.4078 866 20.3563C868.27 21.8203 870.961 22.6562 873.863 22.6562C883.294 22.6562 888.45 14.8438 888.45 8.07187C888.45 7.84531 888.442 7.62656 888.431 7.40938C889.448 6.6875 890.303 5.78594 891 4.74844Z" fill="white"/>
</g>
<g clip-path="url(#clip2_50_1855)">
<path d="M920.809 15.8135L920.396 21.6302C920.988 21.6302 921.244 21.376 921.551 21.0708L924.325 18.4198L930.073 22.6291C931.127 23.2166 931.87 22.9073 932.154 21.6594L935.927 3.98018L935.928 3.97914C936.263 2.42081 935.365 1.81143 934.338 2.19372L912.16 10.6844C910.647 11.2719 910.67 12.1156 911.903 12.4979L917.573 14.2614L930.743 6.02081C931.363 5.61039 931.926 5.83748 931.463 6.24789L920.809 15.8135Z" fill="white"/>
</g>
<g clip-path="url(#clip3_50_1855)">
<path d="M959.729 22.0792H974.582L973.873 19.7823L975.57 21.2385L977.125 22.6323L979.958 25V2.57812C979.887 1.18437 978.687 0 977.2 0L959.734 0.003125C958.248 0.003125 957.042 1.18958 957.042 2.58333V19.5C957.042 20.9698 958.246 22.0792 959.729 22.0792ZM970.717 5.91979L970.682 5.93229L970.695 5.91979H970.717ZM962.768 7.24167C964.677 5.85208 966.447 5.91875 966.447 5.91875L966.59 6.05937C964.253 6.61667 963.194 7.66042 963.194 7.66042C963.194 7.66042 963.477 7.52187 963.972 7.31042C967.119 6.07292 970.555 6.1625 973.736 7.72917C973.736 7.72917 972.675 6.75312 970.482 6.12812L970.676 5.9375C970.979 5.93854 972.583 5.99479 974.3 7.25C974.3 7.25 976.221 10.5312 976.221 14.5625C976.157 14.4854 975.029 16.2979 972.126 16.3604C972.126 16.3604 971.634 15.8042 971.284 15.3187C972.982 14.8313 973.618 13.8562 973.618 13.8562C973.06 14.2073 972.552 14.4156 972.14 14.624C971.505 14.9031 970.87 15.0406 970.235 15.1812C967.231 15.6687 965.545 14.8531 963.951 14.2062L963.406 13.9292C963.406 13.9292 964.041 14.9042 965.671 15.3917C965.243 15.8802 964.819 16.4354 964.819 16.4354C961.917 16.3667 960.858 14.5542 960.858 14.5542C960.858 10.5167 962.768 7.24167 962.768 7.24167Z" fill="white"/>
<path d="M970.904 13.3036C971.645 13.3036 972.248 12.6786 972.248 11.9077C972.248 11.1421 971.648 10.5171 970.904 10.5171V10.5202C970.167 10.5202 969.562 11.1431 969.56 11.914C969.56 12.6786 970.163 13.3036 970.904 13.3036Z" fill="white"/>
<path d="M966.094 13.3036C966.834 13.3036 967.437 12.6786 967.437 11.9077C967.437 11.1421 966.839 10.5171 966.098 10.5171L966.094 10.5202C965.353 10.5202 964.75 11.1431 964.75 11.914C964.75 12.6786 965.353 13.3036 966.094 13.3036Z" fill="white"/>
</g>
<defs>
<clipPath id="clip0_50_1855">
<rect width="25" height="25" fill="white" transform="translate(821)"/>
</clipPath>
<clipPath id="clip1_50_1855">
<rect width="25" height="25" fill="white" transform="translate(866)"/>
</clipPath>
<clipPath id="clip2_50_1855">
<rect width="25" height="25" fill="white" transform="translate(911)"/>
</clipPath>
<clipPath id="clip3_50_1855">
<rect width="25" height="25" fill="white" transform="translate(956)"/>
</clipPath>
</defs>
</svg>
