<svg width="160" height="25" viewBox="0 0 160 25" fill="none" xmlns="http://www.w3.org/2000/svg">
<g clip-path="url(#clip0_50_1857)">
<path d="M24.9755 7.35007C24.917 6.02172 24.7022 5.1085 24.3945 4.31717C24.077 3.4772 23.5886 2.72518 22.9488 2.10002C22.3236 1.46513 21.5666 0.971793 20.7364 0.659308C19.9405 0.351593 19.032 0.136784 17.7037 0.0782166C16.3654 0.0146894 15.9406 0 12.5464 0C9.15216 0 8.72731 0.0146894 7.394 0.0732565C6.06566 0.131824 5.15244 0.346824 4.3613 0.654348C3.52114 0.971793 2.76912 1.46017 2.14396 2.10002C1.50907 2.72518 1.01593 3.48216 0.703253 4.3124C0.395538 5.1085 0.180729 6.01676 0.122162 7.34511C0.0586347 8.68338 0.0439453 9.10822 0.0439453 12.5024C0.0439453 15.8967 0.0586347 16.3215 0.117202 17.6548C0.175769 18.9832 0.390769 19.8964 0.698484 20.6877C1.01593 21.5277 1.50907 22.2797 2.14396 22.9049C2.76912 23.5398 3.5261 24.0331 4.35634 24.3456C5.15244 24.6533 6.0607 24.8681 7.38924 24.9267C8.72235 24.9854 9.14739 24.9999 12.5416 24.9999C15.9358 24.9999 16.3607 24.9854 17.694 24.9267C19.0223 24.8681 19.9355 24.6533 20.7267 24.3456C22.4068 23.696 23.7351 22.3677 24.3847 20.6877C24.6922 19.8916 24.9072 18.9832 24.9658 17.6548C25.0244 16.3215 25.0391 15.8967 25.0391 12.5024C25.0391 9.10822 25.0341 8.68338 24.9755 7.35007ZM22.7242 17.5571C22.6704 18.7781 22.4654 19.4374 22.2944 19.8769C21.8744 20.966 21.01 21.8304 19.9209 22.2505C19.4813 22.4214 18.8172 22.6265 17.6011 22.6801C16.2824 22.7389 15.887 22.7534 12.5513 22.7534C9.21569 22.7534 8.81526 22.7389 7.50141 22.6801C6.28047 22.6265 5.62116 22.4214 5.18162 22.2505C4.63964 22.0502 4.1463 21.7328 3.74587 21.3176C3.33075 20.9123 3.01331 20.4239 2.813 19.8819C2.64207 19.4424 2.43699 18.7781 2.38338 17.5621C2.32462 16.2435 2.31012 15.8478 2.31012 12.5122C2.31012 9.17652 2.32462 8.77609 2.38338 7.46243C2.43699 6.24149 2.64207 5.58218 2.813 5.14264C3.01331 4.60047 3.33075 4.10732 3.75083 3.7067C4.15603 3.29158 4.64441 2.97414 5.18658 2.77402C5.62612 2.60309 6.29039 2.39801 7.50637 2.34421C8.82499 2.28564 9.22065 2.27095 12.5561 2.27095C15.8967 2.27095 16.2922 2.28564 17.606 2.34421C18.827 2.39801 19.4863 2.60309 19.9258 2.77402C20.4678 2.97414 20.9611 3.29158 21.3616 3.7067C21.7767 4.11209 22.0941 4.60047 22.2944 5.14264C22.4654 5.58218 22.6704 6.24626 22.7242 7.46243C22.7828 8.78105 22.7975 9.17652 22.7975 12.5122C22.7975 15.8478 22.7828 16.2385 22.7242 17.5571Z" fill="white"/>
<path d="M12.5464 6.08032C9.00092 6.08032 6.12427 8.95679 6.12427 12.5025C6.12427 16.0482 9.00092 18.9246 12.5464 18.9246C16.0921 18.9246 18.9686 16.0482 18.9686 12.5025C18.9686 8.95679 16.0921 6.08032 12.5464 6.08032ZM12.5464 16.6684C10.2463 16.6684 8.38053 14.8028 8.38053 12.5025C8.38053 10.2021 10.2463 8.33659 12.5464 8.33659C14.8468 8.33659 16.7123 10.2021 16.7123 12.5025C16.7123 14.8028 14.8468 16.6684 12.5464 16.6684V16.6684Z" fill="white"/>
<path d="M20.7219 5.82643C20.7219 6.65438 20.0506 7.32571 19.2224 7.32571C18.3945 7.32571 17.7231 6.65438 17.7231 5.82643C17.7231 4.99829 18.3945 4.32715 19.2224 4.32715C20.0506 4.32715 20.7219 4.99829 20.7219 5.82643V5.82643Z" fill="white"/>
</g>
<g clip-path="url(#clip1_50_1857)">
<path d="M70 4.74844C69.0703 5.15625 68.0797 5.42656 67.0469 5.55781C68.1094 4.92344 68.9203 3.92656 69.3016 2.725C68.3109 3.31562 67.2172 3.73281 66.0516 3.96563C65.1109 2.96406 63.7703 2.34375 62.3078 2.34375C59.4703 2.34375 57.1859 4.64688 57.1859 7.47031C57.1859 7.87656 57.2203 8.26719 57.3047 8.63906C53.0438 8.43125 49.2734 6.38906 46.7406 3.27813C46.2984 4.04531 46.0391 4.92344 46.0391 5.86875C46.0391 7.64375 46.9531 9.21719 48.3156 10.1281C47.4922 10.1125 46.6844 9.87344 46 9.49688C46 9.5125 46 9.53281 46 9.55312C46 12.0437 47.7766 14.1125 50.1062 14.5891C49.6891 14.7031 49.2344 14.7578 48.7625 14.7578C48.4344 14.7578 48.1031 14.7391 47.7922 14.6703C48.4562 16.7 50.3406 18.1922 52.5813 18.2406C50.8375 19.6047 48.6234 20.4266 46.2266 20.4266C45.8063 20.4266 45.4031 20.4078 45 20.3562C47.2703 21.8203 49.9609 22.6562 52.8625 22.6562C62.2937 22.6562 67.45 14.8438 67.45 8.07187C67.45 7.84531 67.4422 7.62656 67.4312 7.40938C68.4484 6.6875 69.3031 5.78594 70 4.74844Z" fill="white"/>
</g>
<g clip-path="url(#clip2_50_1857)">
<path d="M99.8094 15.8135L99.3958 21.6302C99.9875 21.6302 100.244 21.376 100.551 21.0708L103.325 18.4198L109.073 22.6291C110.127 23.2166 110.87 22.9073 111.154 21.6594L114.927 3.98018L114.928 3.97914C115.263 2.42081 114.365 1.81143 113.338 2.19372L91.1604 10.6844C89.6469 11.2719 89.6698 12.1156 90.9031 12.4979L96.5729 14.2614L109.743 6.02081C110.363 5.61039 110.926 5.83748 110.463 6.24789L99.8094 15.8135Z" fill="white"/>
</g>
<g clip-path="url(#clip3_50_1857)">
<path d="M138.729 22.0792H153.582L152.873 19.7823L154.57 21.2385L156.125 22.6323L158.958 25V2.57812C158.887 1.18437 157.687 0 156.2 0L138.734 0.003125C137.248 0.003125 136.042 1.18958 136.042 2.58333V19.5C136.042 20.9698 137.246 22.0792 138.729 22.0792V22.0792ZM149.717 5.91979L149.682 5.93229L149.695 5.91979H149.717ZM141.768 7.24167C143.677 5.85208 145.447 5.91875 145.447 5.91875L145.59 6.05937C143.253 6.61667 142.194 7.66042 142.194 7.66042C142.194 7.66042 142.477 7.52187 142.972 7.31042C146.119 6.07292 149.555 6.1625 152.736 7.72917C152.736 7.72917 151.675 6.75312 149.482 6.12812L149.676 5.9375C149.979 5.93854 151.583 5.99479 153.3 7.25C153.3 7.25 155.221 10.5312 155.221 14.5625C155.157 14.4854 154.029 16.2979 151.126 16.3604C151.126 16.3604 150.634 15.8042 150.284 15.3187C151.982 14.8312 152.618 13.8562 152.618 13.8562C152.06 14.2073 151.552 14.4156 151.14 14.624C150.505 14.9031 149.87 15.0406 149.235 15.1812C146.231 15.6687 144.545 14.8531 142.951 14.2062L142.406 13.9292C142.406 13.9292 143.041 14.9042 144.671 15.3917C144.243 15.8802 143.819 16.4354 143.819 16.4354C140.917 16.3667 139.858 14.5542 139.858 14.5542C139.858 10.5167 141.768 7.24167 141.768 7.24167V7.24167Z" fill="white"/>
<path d="M149.904 13.3036C150.645 13.3036 151.248 12.6786 151.248 11.9077C151.248 11.1421 150.648 10.5171 149.904 10.5171V10.5202C149.167 10.5202 148.562 11.1431 148.56 11.914C148.56 12.6786 149.163 13.3036 149.904 13.3036Z" fill="white"/>
<path d="M145.094 13.3036C145.834 13.3036 146.437 12.6786 146.437 11.9077C146.437 11.1421 145.839 10.5171 145.098 10.5171L145.094 10.5202C144.353 10.5202 143.75 11.1431 143.75 11.914C143.75 12.6786 144.353 13.3036 145.094 13.3036V13.3036Z" fill="white"/>
</g>
<defs>
<clipPath id="clip0_50_1857">
<rect width="25" height="25" fill="white"/>
</clipPath>
<clipPath id="clip1_50_1857">
<rect width="25" height="25" fill="white" transform="translate(45)"/>
</clipPath>
<clipPath id="clip2_50_1857">
<rect width="25" height="25" fill="white" transform="translate(90)"/>
</clipPath>
<clipPath id="clip3_50_1857">
<rect width="25" height="25" fill="white" transform="translate(135)"/>
</clipPath>
</defs>
</svg>
