<svg width="301" height="40" viewBox="0 0 301 40" fill="none" xmlns="http://www.w3.org/2000/svg">
<path d="M114.466 14.728V24.5H119.646V22.946H116.426V14.728H114.466ZM128.382 20.622C128.382 18.172 126.632 16.618 124.392 16.618C122.152 16.618 120.402 18.172 120.402 20.622C120.402 23.058 122.096 24.626 124.336 24.626C126.59 24.626 128.382 23.058 128.382 20.622ZM122.39 20.622C122.39 19.068 123.328 18.326 124.364 18.326C125.4 18.326 126.366 19.068 126.366 20.622C126.366 22.162 125.372 22.918 124.336 22.918C123.286 22.918 122.39 22.162 122.39 20.622ZM129.316 20.594C129.316 23.016 130.884 24.626 132.844 24.626C134.076 24.626 134.958 24.038 135.42 23.366V24.5H137.394V16.744H135.42V17.85C134.958 17.206 134.104 16.618 132.858 16.618C130.884 16.618 129.316 18.172 129.316 20.594ZM135.42 20.622C135.42 22.092 134.44 22.904 133.362 22.904C132.312 22.904 131.318 22.064 131.318 20.594C131.318 19.124 132.312 18.34 133.362 18.34C134.44 18.34 135.42 19.152 135.42 20.622ZM138.804 20.594C138.804 23.016 140.372 24.626 142.346 24.626C143.564 24.626 144.432 24.066 144.894 23.352V24.5H146.882V14.14H144.894V17.822C144.362 17.094 143.382 16.618 142.36 16.618C140.372 16.618 138.804 18.172 138.804 20.594ZM144.908 20.622C144.908 22.092 143.928 22.904 142.85 22.904C141.8 22.904 140.806 22.064 140.806 20.594C140.806 19.124 141.8 18.34 142.85 18.34C143.928 18.34 144.908 19.152 144.908 20.622ZM152.132 24.5H154.092V18.144L156.724 24.5H158.208L160.826 18.144V24.5H162.786V14.728H160.574L157.466 21.994L154.358 14.728H152.132V24.5ZM172.214 20.622C172.214 18.172 170.464 16.618 168.224 16.618C165.984 16.618 164.234 18.172 164.234 20.622C164.234 23.058 165.928 24.626 168.168 24.626C170.422 24.626 172.214 23.058 172.214 20.622ZM166.222 20.622C166.222 19.068 167.16 18.326 168.196 18.326C169.232 18.326 170.198 19.068 170.198 20.622C170.198 22.162 169.204 22.918 168.168 22.918C167.118 22.918 166.222 22.162 166.222 20.622ZM175.612 20.636C175.612 19.138 176.312 18.69 177.474 18.69H177.992V16.632C176.914 16.632 176.102 17.15 175.612 17.948V16.744H173.652V24.5H175.612V20.636ZM182.644 18.228C183.652 18.228 184.464 18.872 184.492 19.894H180.81C180.964 18.83 181.706 18.228 182.644 18.228ZM186.326 22.064H184.212C183.96 22.582 183.498 23.002 182.658 23.002C181.678 23.002 180.894 22.358 180.796 21.21H186.466C186.508 20.958 186.522 20.706 186.522 20.454C186.522 18.144 184.94 16.618 182.7 16.618C180.404 16.618 178.808 18.172 178.808 20.622C178.808 23.058 180.446 24.626 182.7 24.626C184.618 24.626 185.906 23.492 186.326 22.064Z" fill="#DA18A3"/>
<rect x="1" y="0.5" width="299" height="39" rx="9.5" stroke="url(#paint0_linear_14_1311)"/>
<defs>
<linearGradient id="paint0_linear_14_1311" x1="98.6818" y1="6.98458e-07" x2="180.864" y2="121.153" gradientUnits="userSpaceOnUse">
<stop stop-color="#EB1484"/>
<stop offset="0.9999" stop-color="#C91CC3"/>
<stop offset="1" stop-color="#C81CC5"/>
<stop offset="1" stop-color="#C81CC5"/>
</linearGradient>
</defs>
</svg>
