<svg width="80" height="21" viewBox="0 0 80 21" fill="none" xmlns="http://www.w3.org/2000/svg">
<path d="M10.14 10.96C10.14 6.04 2.98 7.6 2.98 4.8C2.98 3.66 3.8 3.12 4.9 3.16C6.1 3.18 6.84 3.9 6.9 4.82H9.98C9.8 2.3 7.84 0.84 4.98 0.84C2.1 0.84 0.0600001 2.36 0.0600001 4.88C0.04 9.94 7.24 8.12 7.24 11.14C7.24 12.14 6.46 12.84 5.14 12.84C3.84 12.84 3.1 12.1 3.02 10.98H0.0200001C0.0600001 13.62 2.3 15.14 5.2 15.14C8.38 15.14 10.14 13.16 10.14 10.96ZM23.0275 3.92H20.2075V10.02C20.2075 11.8 19.2475 12.76 17.7275 12.76C16.2475 12.76 15.2675 11.8 15.2675 10.02V3.92H12.4675V10.42C12.4675 13.46 14.3275 15.14 16.9075 15.14C18.2875 15.14 19.5075 14.54 20.2075 13.6V15H23.0275V3.92ZM28.5902 5.52V3.92H25.7902V20.28H28.5902V13.42C29.2702 14.32 30.5102 15.18 32.2502 15.18C35.0902 15.18 37.3102 12.88 37.3102 9.42C37.3102 5.96 35.0902 3.74 32.2502 3.74C30.5302 3.74 29.2502 4.58 28.5902 5.52ZM34.4502 9.42C34.4502 11.52 33.0302 12.72 31.5102 12.72C30.0102 12.72 28.5902 11.56 28.5902 9.46C28.5902 7.36 30.0102 6.2 31.5102 6.2C33.0302 6.2 34.4502 7.32 34.4502 9.42ZM42.1448 5.52V3.92H39.3448V20.28H42.1448V13.42C42.8248 14.32 44.0648 15.18 45.8048 15.18C48.6448 15.18 50.8648 12.88 50.8648 9.42C50.8648 5.96 48.6448 3.74 45.8048 3.74C44.0848 3.74 42.8048 4.58 42.1448 5.52ZM48.0048 9.42C48.0048 11.52 46.5848 12.72 45.0648 12.72C43.5648 12.72 42.1448 11.56 42.1448 9.46C42.1448 7.36 43.5648 6.2 45.0648 6.2C46.5848 6.2 48.0048 7.32 48.0048 9.42ZM63.5995 9.46C63.5995 5.96 61.0995 3.74 57.8995 3.74C54.6995 3.74 52.1995 5.96 52.1995 9.46C52.1995 12.94 54.6195 15.18 57.8195 15.18C61.0395 15.18 63.5995 12.94 63.5995 9.46ZM55.0395 9.46C55.0395 7.24 56.3795 6.18 57.8595 6.18C59.3395 6.18 60.7195 7.24 60.7195 9.46C60.7195 11.66 59.2995 12.74 57.8195 12.74C56.3195 12.74 55.0395 11.66 55.0395 9.46ZM68.4534 9.48C68.4534 7.34 69.4534 6.7 71.1134 6.7H71.8534V3.76C70.3134 3.76 69.1534 4.5 68.4534 5.64V3.92H65.6534V15H68.4534V9.48ZM74.1794 11.56C74.1794 14.1 75.5994 15 77.7194 15H79.4794V12.64H78.1794C77.2994 12.64 76.9994 12.32 76.9994 11.58V6.22H79.4794V3.92H76.9994V1.18H74.1794V3.92H72.8594V6.22H74.1794V11.56Z" fill="white"/>
</svg>
